<?xml version="1.0" standalone="no"?>
<!DOCTYPE svg PUBLIC "-//W3C//DTD SVG 20010904//EN"
 "http://www.w3.org/TR/2001/REC-SVG-20010904/DTD/svg10.dtd">
<svg version="1.0" xmlns="http://www.w3.org/2000/svg"
 width="7087.000000pt" height="7087.000000pt" viewBox="0 0 7087.000000 7087.000000"
 preserveAspectRatio="xMidYMid meet">
<metadata>
Created by potrace 1.14, written by Peter Selinger 2001-2017
</metadata>
<g transform="translate(0.000000,7087.000000) scale(0.100000,-0.100000)"
fill="#000000" stroke="none">
<path d="M33548 57035 c-2 -2 -70 -6 -153 -10 -82 -4 -175 -9 -205 -10 -30 -2
-118 -6 -195 -10 -77 -3 -169 -8 -205 -10 -36 -2 -128 -6 -205 -10 -77 -3
-169 -8 -205 -10 -66 -4 -318 -16 -400 -19 -54 -2 -73 -12 -66 -34 3 -10 8
-80 11 -157 3 -77 8 -174 10 -215 2 -41 6 -127 10 -190 3 -63 8 -158 10 -210
3 -52 7 -142 10 -200 3 -58 7 -154 10 -215 9 -183 14 -285 20 -400 3 -60 7
-148 10 -195 6 -113 14 -281 20 -410 3 -58 7 -150 10 -205 3 -55 7 -152 10
-215 4 -63 8 -149 10 -190 2 -41 7 -138 11 -215 9 -186 12 -238 13 -251 1 -6
18 -10 44 -8 23 1 114 5 202 9 88 4 180 9 205 10 25 1 115 6 200 10 85 4 175
9 200 10 25 1 75 4 112 5 l68 3 -5 91 c-2 50 -7 141 -10 201 -3 61 -7 151 -10
200 -3 50 -7 144 -10 210 -3 66 -7 161 -10 210 -3 50 -7 142 -11 205 -3 63 -7
136 -8 162 -2 27 2 52 8 56 15 12 145 12 198 1 51 -12 133 -52 167 -83 50 -45
115 -144 326 -491 119 -198 265 -438 324 -534 l106 -175 65 3 c36 2 85 5 110
6 142 7 363 18 415 20 33 1 125 6 205 10 80 5 204 8 275 9 117 0 175 -3 368
-19 33 -3 87 -7 120 -10 83 -6 223 -16 272 -20 22 -2 87 -6 145 -10 58 -4 109
-7 113 -8 9 -2 30 52 154 379 l57 152 40 -4 c23 -2 82 -6 131 -10 50 -3 106
-7 125 -9 45 -3 225 -17 270 -20 183 -13 232 -17 275 -21 28 -2 84 -6 125 -9
120 -8 183 -15 187 -19 2 -2 6 -14 8 -27 3 -13 7 -35 10 -49 4 -14 8 -36 11
-50 4 -21 34 -154 50 -225 2 -11 7 -33 10 -49 2 -16 6 -32 8 -35 4 -6 18 -78
19 -98 0 -15 31 -22 132 -28 44 -3 105 -7 135 -10 30 -2 93 -7 140 -10 47 -4
103 -8 125 -10 22 -1 83 -6 135 -9 52 -4 115 -9 140 -11 25 -2 88 -7 140 -10
52 -4 103 -9 114 -11 15 -3 17 1 12 19 -4 12 -9 29 -11 37 -2 8 -18 62 -35
120 -17 58 -33 112 -35 120 -2 8 -13 47 -25 85 -12 39 -23 77 -25 86 -2 9 -18
63 -35 119 -17 56 -33 111 -35 122 -2 10 -9 33 -15 51 -6 18 -40 132 -75 255
-36 123 -67 227 -69 231 -3 4 -7 18 -10 32 -2 13 -17 65 -31 114 -15 50 -34
113 -42 140 -8 28 -21 73 -29 100 -8 28 -16 57 -18 65 -3 8 -28 94 -56 190
-49 167 -63 213 -96 325 -8 28 -16 57 -18 66 -3 9 -19 63 -36 120 -17 57 -33
111 -35 119 -2 8 -13 47 -25 85 -12 39 -23 78 -25 88 -2 10 -15 55 -29 100
-31 102 -87 289 -90 302 -15 58 -29 106 -41 138 -8 20 -15 40 -15 45 0 9 -7
35 -22 85 -8 27 -17 37 -32 38 -12 1 -34 2 -51 4 -16 1 -73 5 -125 9 -52 4
-115 8 -140 11 -49 4 -195 15 -275 20 -124 9 -224 16 -265 20 -25 2 -89 7
-142 10 l-98 7 -30 -67 c-17 -37 -46 -100 -64 -139 -18 -39 -45 -96 -59 -126
-81 -176 -139 -300 -213 -459 -30 -62 -54 -115 -54 -117 0 -2 -27 -60 -60
-129 -33 -69 -60 -127 -60 -129 0 -2 -23 -53 -51 -112 -28 -60 -59 -127 -69
-149 -10 -22 -46 -98 -79 -169 -34 -70 -61 -130 -61 -131 0 -2 -27 -61 -61
-132 -34 -70 -78 -166 -99 -213 -21 -47 -57 -125 -80 -175 -114 -244 -134
-287 -190 -410 -13 -27 -49 -106 -82 -175 -33 -69 -69 -147 -81 -175 -11 -27
-26 -58 -33 -68 -12 -18 -13 -18 -27 5 -15 22 -247 422 -292 503 -21 36 -50
87 -167 286 -41 71 -197 260 -266 321 -22 20 -58 48 -79 62 -34 23 -151 71
-195 81 -10 2 -25 8 -34 13 -14 8 -11 11 17 17 53 10 167 55 238 92 192 101
359 297 425 499 33 100 41 158 41 304 0 148 -6 198 -39 312 -27 93 -76 193
-130 266 -64 88 -183 190 -276 236 -39 20 -170 66 -170 60 0 -2 -12 1 -26 6
-14 6 -44 12 -67 15 -23 3 -58 8 -77 12 -35 6 -606 14 -612 8z m85 -689 c141
-19 231 -85 268 -195 22 -64 21 -169 -1 -229 -22 -59 -80 -127 -129 -152 -32
-16 -184 -60 -262 -75 -30 -6 -117 -12 -284 -20 -71 -4 -147 -8 -168 -9 -21
-1 -40 0 -42 4 -2 3 -6 66 -10 140 -3 74 -8 169 -10 210 -16 314 -16 310 2
311 24 2 97 5 283 14 85 3 156 8 158 9 4 4 149 -2 195 -8z m3581 -328 c9 -40
18 -82 20 -93 4 -19 43 -192 52 -227 2 -10 6 -27 9 -39 2 -11 6 -28 9 -37 3
-9 7 -28 10 -42 4 -20 25 -116 61 -275 11 -46 17 -75 17 -82 0 -5 4 -17 8 -29
5 -11 11 -36 14 -55 5 -31 13 -69 20 -94 1 -5 8 -36 15 -67 12 -56 12 -75 1
-71 -3 1 -46 4 -95 7 -50 3 -117 8 -150 11 -84 7 -187 14 -275 21 -41 3 -93 7
-115 9 -22 2 -46 4 -52 4 -9 1 -6 19 11 64 44 117 128 332 137 352 4 11 33 83
62 160 30 77 58 149 62 160 5 11 9 22 9 25 1 3 30 77 65 165 35 88 67 170 72
183 5 12 10 22 13 22 2 0 11 -33 20 -72z"/>
<path d="M30108 56685 c-1 -1 -35 -6 -74 -9 -39 -4 -80 -8 -91 -10 -11 -3 -44
-7 -73 -11 -29 -4 -62 -9 -74 -11 -12 -2 -37 -6 -56 -9 -19 -3 -46 -7 -60 -10
-47 -10 -75 -15 -120 -21 -25 -3 -47 -8 -50 -9 -3 -2 -24 -6 -46 -9 -22 -4
-51 -9 -64 -11 -14 -3 -41 -8 -60 -11 -46 -7 -80 -13 -105 -18 -11 -2 -40 -7
-65 -11 -25 -4 -54 -9 -65 -11 -11 -3 -36 -7 -55 -10 -34 -5 -57 -9 -110 -19
-14 -3 -38 -7 -55 -10 -16 -2 -40 -6 -51 -9 -22 -5 -68 -12 -131 -22 -21 -3
-45 -7 -53 -9 -8 -3 -32 -7 -54 -11 -21 -3 -48 -8 -60 -10 -11 -2 -34 -6 -51
-9 -16 -3 -41 -7 -55 -10 -14 -3 -38 -7 -55 -9 -16 -3 -70 -12 -120 -21 -79
-14 -122 -21 -175 -30 -19 -3 -18 -36 4 -165 12 -65 26 -147 30 -166 5 -23 15
-85 21 -119 3 -20 11 -69 20 -115 3 -14 7 -41 10 -60 3 -19 8 -46 10 -60 10
-49 15 -75 20 -110 5 -35 10 -61 20 -110 2 -14 7 -40 10 -57 3 -18 7 -48 10
-65 3 -18 8 -44 10 -58 10 -49 15 -75 20 -110 3 -20 8 -47 11 -60 2 -14 14
-77 24 -140 11 -63 22 -128 26 -145 3 -16 7 -39 9 -50 3 -21 32 -185 39 -221
2 -12 7 -45 11 -75 4 -30 8 -56 10 -59 2 -3 6 -24 9 -46 6 -39 11 -64 21 -114
2 -14 7 -40 10 -57 3 -18 7 -48 10 -65 3 -18 8 -44 10 -58 10 -49 15 -75 20
-110 3 -20 7 -47 10 -60 3 -14 8 -41 11 -60 4 -19 8 -44 11 -55 2 -11 6 -36 9
-55 3 -19 12 -71 19 -115 8 -44 16 -91 19 -105 2 -14 9 -52 15 -85 6 -33 13
-75 16 -92 6 -36 13 -77 19 -108 10 -54 19 -121 17 -128 -2 -9 67 -2 169 18
61 13 78 15 120 21 25 3 52 7 60 9 8 2 29 7 45 10 17 2 39 7 50 9 11 2 40 7
65 11 51 8 74 12 110 20 14 2 39 7 55 9 17 3 46 8 65 11 19 4 44 8 55 10 11 1
66 11 123 20 115 20 113 19 92 113 -6 23 -12 57 -15 75 -2 17 -6 42 -9 53 -5
22 -12 68 -22 132 -3 20 -7 44 -9 52 -2 8 -7 30 -10 48 -3 17 -8 47 -11 65 -3
17 -7 43 -9 57 -3 14 -7 36 -9 50 -3 13 -8 40 -11 60 -3 20 -8 47 -10 60 -6
28 -13 67 -20 108 -2 15 -7 43 -10 62 -4 19 -8 44 -10 55 -3 20 -14 83 -20
114 -1 9 -6 36 -10 61 -4 25 -9 54 -11 65 -3 11 -7 36 -10 55 -3 19 -8 38 -10
42 -10 16 43 28 147 33 121 6 213 -30 302 -119 46 -45 385 -467 711 -885 132
-169 113 -154 182 -142 32 6 73 13 89 16 17 2 41 7 55 10 13 2 40 7 60 10 35
5 61 10 110 20 25 5 47 8 124 20 21 4 48 9 60 11 11 3 35 7 51 10 17 2 46 7
65 11 19 3 42 7 50 8 14 2 53 9 110 20 14 3 41 7 60 10 19 3 46 8 60 10 74 15
148 27 168 28 6 0 12 5 12 10 0 6 -47 71 -103 146 -135 177 -347 457 -456 601
-109 145 -182 222 -301 322 -92 77 -173 127 -235 143 -16 5 -36 10 -42 12 -7
1 -19 5 -25 6 -7 2 -35 7 -61 12 -27 4 -45 11 -40 15 4 5 52 31 106 59 188 97
314 219 404 391 44 85 78 182 90 255 14 91 8 285 -11 370 -2 11 -9 41 -15 67
-57 248 -228 464 -451 570 -65 31 -103 44 -150 53 -14 3 -36 8 -50 11 -25 7
-375 15 -382 9z m-97 -771 c128 -72 187 -255 128 -396 -29 -70 -93 -128 -177
-163 -37 -15 -76 -31 -87 -36 -35 -16 -149 -48 -190 -54 -22 -4 -47 -8 -55
-10 -8 -2 -33 -7 -55 -10 -23 -3 -52 -8 -65 -10 -60 -12 -153 -27 -179 -28
-26 -2 -31 9 -46 103 -3 20 -8 47 -10 60 -3 14 -7 40 -10 59 -2 18 -7 41 -9
50 -3 9 -8 36 -11 61 -3 25 -8 52 -10 60 -2 8 -6 31 -9 50 -3 19 -8 45 -10 56
-2 12 -7 39 -11 60 -3 22 -8 51 -10 65 -5 26 -3 27 53 35 31 4 59 8 62 9 3 0
28 5 55 10 28 4 55 9 60 11 6 1 28 5 50 8 79 13 100 17 115 21 8 2 38 7 65 11
28 3 52 8 54 10 3 2 59 3 126 1 114 -3 125 -5 176 -33z"/>
<path d="M40388 56575 c-2 -1 -33 -5 -70 -9 -36 -3 -72 -8 -80 -11 -7 -2 -24
-6 -38 -9 -227 -38 -450 -174 -589 -360 -50 -66 -125 -209 -135 -257 -3 -13
-10 -42 -16 -64 -31 -125 -29 -307 6 -424 45 -152 150 -311 282 -428 42 -37
79 -70 82 -73 12 -13 220 -151 237 -157 10 -4 20 -10 23 -14 7 -10 240 -129
340 -174 294 -130 466 -232 526 -313 43 -60 73 -153 67 -212 -10 -99 -82 -196
-184 -247 -57 -28 -88 -35 -183 -37 -212 -6 -417 93 -517 247 -60 93 -78 159
-86 317 -3 58 -6 106 -8 108 -4 4 -40 10 -104 17 -33 3 -68 8 -79 10 -10 2
-43 7 -73 10 -30 4 -63 9 -74 10 -11 2 -42 6 -70 9 -27 3 -63 8 -80 10 -16 2
-52 7 -80 11 -27 4 -61 8 -75 10 -14 2 -45 7 -70 10 -25 3 -61 8 -80 10 -19 3
-57 7 -85 11 -27 3 -60 7 -72 9 -26 4 -29 -13 -27 -180 1 -171 19 -279 70
-435 18 -54 97 -211 127 -254 132 -186 291 -300 577 -414 66 -26 216 -75 267
-87 10 -3 38 -9 63 -16 25 -6 53 -12 63 -14 10 -2 26 -6 35 -9 9 -3 31 -8 47
-11 17 -2 41 -7 55 -10 34 -7 68 -13 115 -20 23 -3 52 -7 65 -10 37 -7 216
-19 285 -19 70 0 219 11 255 19 14 3 41 8 60 11 72 11 205 58 300 105 149 73
307 212 399 349 51 76 93 150 85 150 -3 0 -2 6 4 13 6 7 20 38 32 69 20 53 24
67 36 127 3 14 7 28 9 31 7 12 19 134 19 200 0 67 -9 157 -18 198 -3 12 -8 31
-11 43 -6 29 -42 124 -61 162 -40 80 -114 174 -205 261 -127 123 -263 214
-509 343 -54 28 -268 130 -345 164 -359 157 -428 200 -474 294 -50 104 21 233
156 280 37 14 193 14 238 1 11 -3 38 -10 59 -15 61 -15 160 -69 205 -112 84
-81 127 -193 130 -340 l1 -47 57 -7 c32 -4 64 -8 73 -10 8 -1 40 -6 71 -9 31
-4 67 -9 79 -11 12 -2 41 -6 64 -9 45 -6 104 -14 151 -21 17 -3 53 -7 80 -10
28 -3 61 -8 75 -10 14 -2 48 -7 75 -11 28 -3 57 -8 65 -9 9 -2 43 -6 75 -10
33 -4 67 -9 76 -10 11 -2 19 5 21 19 9 45 -1 250 -16 326 -23 124 -29 140 -79
250 -114 245 -351 427 -715 549 -64 22 -128 42 -142 45 -14 3 -35 7 -47 10
-13 4 -32 8 -44 11 -11 2 -28 6 -37 9 -9 3 -33 8 -52 11 -19 3 -57 10 -85 15
-81 16 -162 27 -245 36 -61 6 -317 13 -322 9z"/>
<path d="M26219 55845 c-3 -2 -95 -32 -205 -66 -109 -33 -215 -66 -234 -72
-19 -6 -37 -11 -40 -12 -3 -1 -32 -9 -65 -20 -33 -10 -62 -19 -65 -20 -3 -1
-30 -9 -60 -18 -30 -9 -57 -17 -60 -16 -3 0 -30 -9 -60 -21 -30 -12 -55 -21
-55 -19 0 1 -40 -10 -90 -25 -49 -15 -98 -30 -107 -32 -11 -3 -18 -16 -19 -32
-1 -15 -2 -43 -4 -62 -1 -19 -5 -84 -9 -145 -3 -60 -9 -141 -11 -178 -3 -38
-7 -107 -10 -155 -5 -89 -11 -191 -20 -317 -4 -68 -10 -168 -20 -325 -2 -41
-7 -113 -10 -160 -3 -47 -7 -125 -10 -175 -3 -49 -7 -121 -10 -160 -3 -38 -7
-113 -10 -165 -3 -52 -7 -124 -10 -160 -3 -36 -7 -108 -10 -160 -3 -52 -8
-124 -10 -160 -2 -36 -7 -108 -10 -160 -3 -52 -8 -126 -10 -165 -3 -38 -7
-108 -10 -155 -3 -47 -7 -121 -10 -165 -6 -93 -12 -189 -20 -330 -3 -55 -8
-126 -9 -157 -4 -54 -3 -56 18 -48 17 8 188 61 206 65 3 1 32 9 65 20 33 10
65 19 70 20 6 2 33 10 60 20 28 9 57 18 65 20 8 2 35 10 60 18 25 8 86 27 135
42 50 15 142 43 205 63 l115 37 0 285 0 284 60 19 c33 10 74 23 90 27 17 4
104 31 195 60 91 28 170 53 175 54 6 1 37 11 70 21 33 10 62 19 65 20 3 0 32
9 65 20 33 10 62 19 65 20 3 0 14 4 25 7 11 4 61 19 110 33 50 15 109 33 133
41 23 8 44 14 46 14 7 0 106 -148 106 -158 0 -6 3 -12 8 -14 10 -4 92 -127 92
-138 0 -5 3 -10 8 -12 4 -1 28 -36 55 -75 26 -40 51 -73 57 -73 5 0 19 4 32 9
20 8 159 52 181 57 4 1 8 2 10 4 1 1 10 3 19 5 18 3 202 59 248 75 14 5 72 23
130 40 58 18 116 35 130 40 14 5 72 23 130 40 58 18 113 35 123 39 15 5 -24
60 -233 331 -138 179 -261 339 -274 355 -22 28 -280 361 -440 570 -39 50 -122
158 -185 240 -64 83 -120 155 -126 162 -5 6 -48 61 -95 123 -118 155 -277 362
-291 379 -7 7 -26 32 -44 55 -116 151 -448 582 -454 589 -4 4 -10 5 -12 2z
m-125 -1230 c113 -166 210 -309 409 -602 64 -94 117 -176 117 -181 0 -5 -12
-13 -27 -16 -32 -8 -206 -61 -273 -83 -25 -8 -52 -16 -60 -18 -8 -2 -76 -23
-150 -46 -74 -23 -143 -44 -152 -46 -17 -5 -18 28 -18 603 l1 609 22 -30 c12
-16 71 -101 131 -190z"/>
<path d="M43875 55650 c-22 -5 -57 -11 -78 -14 -74 -12 -221 -58 -301 -94
-403 -181 -701 -558 -877 -1109 -17 -52 -32 -104 -34 -115 -3 -12 -9 -35 -14
-52 -9 -27 -30 -132 -46 -221 -30 -174 -26 -425 11 -600 74 -351 250 -647 498
-833 161 -121 476 -279 656 -327 3 -1 12 -5 20 -8 33 -14 219 -66 256 -71 21
-4 46 -8 54 -11 64 -19 178 -29 315 -29 143 0 213 7 315 34 19 5 37 9 40 9 10
-1 116 42 190 78 187 90 391 267 532 463 111 154 108 140 40 187 -437 303
-661 459 -680 474 -13 10 -29 16 -35 13 -7 -3 -37 -44 -67 -91 -65 -100 -171
-211 -252 -264 -173 -111 -379 -111 -613 2 -190 91 -306 272 -308 482 -1 77 6
161 18 232 5 25 9 45 20 95 1 3 5 21 9 40 4 19 20 73 34 120 14 47 26 87 27
90 3 18 39 117 45 125 4 6 13 27 20 48 33 103 165 315 232 372 214 184 456
217 710 95 192 -91 313 -276 325 -495 3 -49 6 -91 7 -92 1 -1 76 -8 191 -18
17 -2 57 -5 90 -9 33 -3 89 -8 125 -12 36 -3 76 -7 90 -9 14 -2 61 -7 105 -11
44 -4 94 -8 110 -10 17 -2 63 -6 104 -9 41 -3 77 -6 80 -7 25 -2 28 7 25 80
-4 112 -24 271 -40 324 -3 9 -7 26 -9 39 -11 55 -61 191 -101 275 -54 113
-136 225 -235 321 -62 60 -101 92 -225 180 -12 9 -51 31 -149 83 -80 42 -284
126 -359 147 -28 8 -73 21 -101 30 -57 16 -80 22 -115 29 -14 3 -33 7 -42 10
-20 6 -51 12 -98 19 -19 3 -60 9 -90 14 -67 11 -370 11 -425 1z"/>
<path d="M22858 54585 c-2 -1 -43 -5 -93 -9 -85 -5 -130 -11 -165 -21 -8 -2
-31 -7 -50 -10 -28 -5 -74 -16 -120 -30 -3 -1 -18 -5 -35 -9 -16 -4 -39 -11
-50 -15 -197 -77 -260 -104 -367 -158 -151 -76 -252 -140 -373 -238 -306 -246
-483 -551 -532 -917 -13 -102 -7 -359 12 -448 2 -13 7 -42 10 -63 4 -22 10
-50 15 -63 5 -13 8 -24 5 -24 -2 0 2 -18 10 -40 8 -22 15 -44 15 -48 2 -15 33
-117 38 -127 4 -5 16 -37 28 -70 12 -33 29 -77 38 -97 9 -21 16 -40 17 -43 1
-10 113 -223 147 -280 104 -175 242 -342 368 -447 277 -230 609 -362 909 -362
60 0 200 12 235 19 14 3 36 7 50 10 27 5 57 12 93 21 12 3 33 7 47 10 36 8
293 95 305 104 6 4 21 11 35 15 48 14 250 114 343 169 353 208 542 451 652
842 6 23 12 57 22 139 14 109 7 359 -13 482 -4 21 -7 44 -7 52 0 13 -37 12
-147 -3 -14 -2 -50 -7 -80 -11 -30 -3 -66 -8 -80 -10 -14 -2 -48 -7 -76 -10
-28 -3 -60 -7 -71 -9 -23 -5 -117 -17 -238 -31 -27 -4 -61 -8 -75 -10 -14 -2
-47 -7 -75 -10 -89 -10 -90 -11 -89 -36 1 -13 4 -38 8 -56 22 -109 23 -274 2
-378 -16 -77 -52 -156 -104 -222 -58 -74 -225 -177 -341 -212 -74 -22 -83 -23
-166 -26 -254 -8 -438 143 -635 518 -99 189 -173 375 -196 497 -2 14 -7 32
-10 40 -3 8 -8 37 -11 65 -30 244 53 455 231 589 258 195 569 184 789 -28 l75
-72 219 163 c120 89 223 167 229 172 6 5 72 54 147 110 74 55 138 104 141 110
8 13 -185 192 -284 262 -149 107 -349 200 -477 224 -15 2 -39 7 -53 10 -14 3
-54 8 -90 11 -36 3 -79 6 -97 8 -18 2 -33 2 -35 1z"/>
<path d="M47399 54286 c-2 -2 -26 -7 -54 -11 -345 -45 -680 -241 -922 -538
-56 -69 -103 -136 -199 -287 -19 -31 -137 -267 -140 -280 0 -3 -5 -16 -11 -30
-6 -14 -18 -42 -26 -62 -9 -21 -13 -38 -10 -38 3 0 1 -6 -4 -12 -20 -25 -84
-254 -97 -343 -25 -177 -26 -394 -1 -515 3 -14 8 -41 11 -60 8 -51 38 -156 63
-225 4 -11 27 -60 51 -110 114 -242 330 -466 627 -653 63 -40 342 -182 423
-215 142 -59 301 -106 410 -123 19 -3 41 -7 48 -9 21 -7 170 -19 237 -19 165
1 386 41 505 92 369 158 612 386 835 783 133 236 254 557 281 744 2 16 7 50
11 75 10 63 10 345 0 405 -13 79 -14 87 -25 135 -84 353 -321 670 -677 904
-118 77 -124 81 -247 144 -171 89 -398 175 -548 208 -19 4 -37 8 -40 9 -3 1
-27 5 -55 10 -27 4 -59 10 -70 12 -24 6 -371 14 -376 9z m486 -850 c56 -9 173
-53 239 -90 158 -89 258 -208 311 -371 21 -63 28 -251 13 -326 -61 -301 -274
-701 -476 -891 -117 -110 -264 -165 -412 -155 -41 3 -84 8 -95 10 -168 38
-337 134 -427 243 -99 120 -141 238 -141 394 0 65 10 168 18 180 2 3 6 17 9
31 18 94 102 308 170 434 74 137 86 155 143 234 137 184 279 280 458 308 17 3
31 6 33 8 4 4 115 -3 157 -9z"/>
<path d="M17565 51836 c-63 -45 -123 -86 -379 -262 -88 -60 -207 -142 -265
-182 -58 -40 -127 -87 -154 -105 -52 -35 -52 -36 -27 -127 7 -25 13 -52 15
-60 2 -8 11 -44 20 -80 9 -36 19 -73 21 -83 2 -10 6 -27 9 -37 3 -10 8 -28 10
-39 3 -12 7 -30 10 -41 3 -11 7 -29 10 -40 3 -11 7 -28 9 -37 2 -10 34 -139
71 -288 37 -148 69 -278 71 -287 2 -10 6 -28 10 -40 3 -13 7 -34 10 -48 3 -14
8 -34 11 -45 7 -22 10 -30 16 -60 3 -11 10 -40 17 -65 7 -25 14 -53 16 -62 2
-10 6 -27 9 -38 3 -11 7 -30 10 -41 2 -12 39 -159 81 -328 75 -302 80 -321 89
-362 2 -11 7 -29 10 -39 3 -10 7 -27 9 -37 2 -10 12 -47 21 -83 9 -36 19 -75
21 -87 2 -12 9 -34 14 -48 5 -14 8 -25 5 -25 -2 0 2 -18 10 -40 8 -22 12 -40
10 -40 -3 0 0 -11 5 -25 5 -14 12 -36 14 -48 3 -17 107 -443 132 -542 3 -11 7
-33 10 -50 4 -16 9 -37 14 -45 4 -8 13 -45 20 -82 7 -38 14 -68 17 -68 5 0
148 98 456 310 83 58 204 141 267 184 63 43 121 84 129 92 12 11 3 46 -58 236
-40 123 -76 230 -81 238 -4 9 -10 29 -14 45 -7 34 -37 9 294 236 96 66 182
125 190 132 9 7 47 33 85 59 39 26 139 94 224 152 l153 105 112 -90 c61 -49
127 -103 146 -119 19 -15 69 -55 110 -88 l75 -60 155 106 c85 59 225 155 310
214 85 58 182 125 215 148 33 22 93 63 133 91 l73 51 -38 27 c-21 15 -164 114
-318 221 -154 107 -284 198 -290 203 -5 4 -102 72 -215 150 -288 201 -784 546
-855 596 -102 71 -195 136 -212 146 -10 6 -26 18 -37 28 -11 9 -23 17 -27 17
-4 0 -14 6 -21 13 -10 10 -274 195 -773 541 -16 12 -32 23 -35 26 -17 17 -71
50 -82 49 -7 0 -40 -19 -73 -43z m431 -1256 c170 -135 378 -300 464 -368 85
-68 156 -126 157 -130 1 -4 -41 -36 -95 -72 -53 -36 -184 -124 -290 -197 -106
-73 -194 -133 -196 -133 -4 0 -37 90 -42 115 -1 6 -14 46 -29 90 -15 44 -28
88 -30 98 -2 10 -13 44 -23 75 -11 31 -37 111 -57 177 -20 66 -45 145 -55 175
-10 30 -39 123 -65 205 -25 83 -51 160 -56 173 -11 29 -12 45 0 40 5 -1 148
-113 317 -248z"/>
<path d="M52328 51485 c-2 -1 -37 -5 -80 -8 -82 -7 -87 -7 -193 -33 -361 -85
-702 -339 -996 -744 -216 -296 -345 -592 -386 -881 -10 -69 -10 -347 0 -419
12 -89 18 -123 29 -165 7 -22 12 -42 13 -45 30 -127 133 -319 243 -454 282
-344 782 -685 1117 -761 107 -24 155 -29 290 -29 191 -1 278 15 460 81 128 47
339 172 457 271 l48 40 -132 173 c-73 96 -169 224 -215 284 -45 61 -86 115
-90 120 -5 6 -37 47 -72 93 l-64 82 -36 -33 c-56 -51 -160 -122 -228 -156
-259 -131 -463 -101 -707 104 -122 102 -194 253 -194 406 0 189 110 427 335
727 141 188 278 314 419 385 122 62 296 79 419 42 33 -10 62 -19 65 -20 3 0
33 -15 67 -34 184 -99 300 -259 331 -456 12 -74 6 -134 -25 -253 -9 -34 -14
-64 -12 -66 2 -2 90 -40 194 -85 105 -45 199 -86 210 -91 11 -5 47 -21 80 -36
266 -118 359 -154 366 -142 10 16 38 126 60 233 18 93 24 159 23 295 0 173
-10 243 -51 375 -26 81 -79 206 -92 215 -4 3 -11 13 -14 23 -14 38 -109 165
-189 254 -86 95 -224 220 -318 288 -30 21 -57 42 -60 45 -7 8 -130 87 -205
133 -131 78 -391 184 -498 202 -18 3 -39 8 -47 10 -50 14 -312 39 -322 30z"/>
<path d="M32827 50334 c-1 -1 -72 -5 -157 -8 -192 -9 -315 -17 -470 -31 -25
-2 -70 -6 -100 -9 -124 -12 -176 -17 -200 -21 -14 -3 -56 -7 -95 -11 -38 -3
-79 -8 -90 -10 -11 -2 -41 -6 -66 -9 -25 -3 -55 -7 -66 -9 -11 -3 -44 -7 -73
-11 -29 -4 -62 -9 -74 -11 -11 -2 -38 -6 -61 -9 -67 -10 -96 -15 -180 -30 -84
-15 -121 -22 -170 -30 -16 -3 -41 -8 -55 -10 -49 -10 -75 -15 -100 -20 -14 -3
-36 -7 -50 -10 -14 -3 -41 -8 -60 -11 -19 -3 -38 -8 -41 -10 -3 -2 -21 -6 -40
-9 -19 -3 -50 -10 -69 -15 -19 -5 -46 -11 -60 -14 -14 -2 -56 -12 -95 -21 -38
-9 -77 -18 -85 -20 -8 -1 -35 -8 -60 -15 -25 -7 -52 -13 -60 -15 -28 -5 -244
-63 -355 -95 -60 -17 -114 -33 -120 -34 -5 -1 -30 -9 -55 -16 -25 -7 -49 -14
-55 -16 -11 -2 -56 -16 -230 -71 -60 -19 -117 -38 -125 -41 -8 -3 -18 -6 -22
-6 -3 -1 -10 -4 -14 -8 -4 -5 -13 -8 -21 -8 -16 0 -305 -101 -473 -165 -204
-78 -310 -119 -335 -130 -16 -8 -95 -40 -175 -73 -139 -57 -173 -72 -338 -148
-40 -19 -74 -34 -77 -34 -22 0 -761 -369 -945 -471 -25 -14 -85 -47 -135 -74
-49 -26 -94 -51 -100 -56 -5 -4 -37 -22 -70 -40 -33 -18 -134 -77 -224 -131
-90 -54 -168 -98 -173 -98 -4 0 -8 -4 -8 -10 0 -5 -5 -10 -10 -10 -6 0 -23 -8
-38 -19 -15 -10 -108 -69 -207 -131 -99 -62 -181 -117 -183 -122 -2 -4 -8 -8
-13 -8 -11 0 -223 -142 -227 -152 -2 -5 -8 -8 -13 -8 -8 0 -209 -138 -329
-226 -281 -205 -651 -489 -770 -590 -14 -12 -88 -75 -165 -140 -166 -139 -303
-261 -400 -354 l-70 -68 -59 53 -59 52 73 129 c40 71 84 149 98 174 14 25 62
110 107 190 45 80 93 165 107 190 14 25 65 117 115 205 49 88 101 180 115 205
14 25 41 72 60 105 19 33 49 85 65 115 31 57 71 128 106 190 11 19 39 69 62
110 23 41 55 97 70 124 15 28 41 72 56 98 16 27 29 50 29 52 0 2 61 110 135
241 74 131 135 239 135 241 0 3 10 21 23 42 39 61 98 172 92 172 -9 0 -325
-209 -465 -308 -243 -172 -505 -378 -725 -570 -1000 -874 -1754 -1928 -2246
-3137 -7 -16 -13 -34 -15 -40 -2 -5 -15 -38 -29 -73 -55 -131 -196 -544 -220
-642 -2 -8 -16 -55 -30 -105 -15 -49 -28 -97 -30 -105 -2 -8 -20 -79 -40 -157
-20 -79 -38 -152 -40 -164 -2 -11 -6 -28 -9 -37 -3 -9 -7 -28 -10 -42 -3 -14
-8 -36 -11 -50 -3 -14 -7 -36 -10 -50 -3 -14 -7 -36 -10 -50 -3 -14 -7 -36
-10 -50 -3 -14 -7 -36 -10 -50 -2 -13 -7 -42 -11 -64 -3 -22 -7 -43 -9 -46 -1
-3 -6 -25 -9 -50 -3 -25 -8 -56 -11 -70 -2 -13 -7 -42 -10 -65 -4 -22 -8 -51
-10 -65 -2 -14 -6 -45 -9 -70 -3 -25 -8 -55 -10 -67 -3 -12 -8 -53 -11 -90 -4
-37 -8 -79 -10 -93 -4 -23 -14 -132 -21 -225 -12 -166 -18 -333 -17 -535 0
-222 10 -550 17 -615 2 -16 7 -59 10 -95 4 -36 9 -77 12 -92 10 -66 15 -94 19
-108 2 -8 7 -28 10 -45 8 -49 14 -76 20 -95 6 -18 10 -38 21 -87 2 -12 9 -35
15 -50 6 -16 13 -37 15 -48 2 -11 10 -36 18 -55 8 -19 24 -62 37 -95 12 -33
38 -91 56 -128 31 -63 67 -151 114 -282 10 -27 32 -88 49 -135 18 -47 47 -134
65 -195 49 -164 161 -495 221 -650 14 -38 33 -88 41 -110 7 -22 20 -53 27 -70
8 -16 26 -61 41 -100 15 -38 35 -88 45 -110 106 -241 151 -346 163 -380 8 -22
24 -68 37 -103 12 -35 20 -66 16 -69 -3 -3 8 -32 25 -64 16 -33 50 -114 75
-182 25 -67 57 -147 71 -177 92 -193 296 -509 442 -686 14 -17 34 -41 43 -52
90 -110 347 -373 488 -497 330 -291 830 -626 1225 -819 257 -126 625 -285 720
-310 6 -2 21 -8 35 -13 14 -6 90 -27 170 -48 148 -38 166 -42 210 -51 14 -3
50 -11 80 -19 30 -7 71 -16 90 -19 19 -3 46 -8 60 -11 14 -3 36 -7 50 -10 14
-3 36 -7 50 -10 13 -2 40 -7 60 -10 20 -3 45 -7 55 -9 37 -7 110 -19 130 -22
11 -1 43 -5 70 -8 28 -4 61 -8 75 -11 14 -2 52 -7 85 -10 362 -42 527 -50 995
-50 402 0 544 5 825 30 147 13 319 31 385 40 14 2 43 6 65 9 22 3 63 8 90 11
28 3 75 10 105 15 30 5 73 12 95 15 23 3 50 7 62 9 22 5 86 16 118 21 11 1 35
6 53 9 17 3 44 8 60 11 15 3 38 7 52 10 14 3 41 8 60 11 19 3 43 7 52 10 16 5
36 9 88 19 14 3 36 7 50 10 14 3 36 8 50 11 24 5 95 21 133 30 9 2 25 6 35 8
9 2 64 16 122 31 101 26 118 30 158 39 9 2 37 10 62 17 25 7 51 13 58 15 7 1
38 10 70 20 31 9 84 25 117 35 108 32 339 107 394 128 54 20 68 28 60 34 -4 4
-576 329 -644 367 -22 12 -132 75 -245 140 -113 64 -225 128 -250 142 -25 14
-62 35 -82 47 -21 11 -55 30 -75 42 -21 12 -42 25 -48 29 -5 4 -35 21 -65 37
-30 16 -91 50 -135 76 -309 178 -537 307 -541 307 -9 0 -172 115 -239 169
-196 156 -503 460 -730 722 -16 18 -57 66 -91 104 -48 55 -245 292 -340 408
-112 137 -467 604 -634 833 -154 212 -440 621 -440 630 0 8 -27 34 -35 34 -3
0 -4 -4 -1 -8 3 -5 8 -31 11 -58 4 -27 9 -62 12 -79 5 -34 7 -47 18 -124 3
-30 9 -63 11 -75 2 -12 7 -41 10 -66 3 -25 7 -54 9 -65 2 -11 6 -40 9 -65 4
-25 9 -57 11 -71 3 -14 7 -41 9 -60 3 -19 7 -47 10 -64 3 -16 7 -50 10 -75 3
-25 8 -54 10 -66 2 -12 7 -45 11 -74 4 -29 8 -60 10 -69 2 -14 6 -37 20 -136
1 -11 6 -44 10 -74 3 -30 9 -63 11 -75 2 -12 6 -39 9 -61 l5 -40 -56 60 c-192
205 -224 253 -364 560 -67 146 -79 174 -135 315 -31 80 -63 161 -70 180 -24
60 -86 244 -91 268 -3 13 -11 40 -18 60 -15 38 -47 144 -61 197 -5 17 -9 32
-10 35 -9 31 -28 98 -30 110 -2 8 -13 51 -24 96 -12 45 -24 92 -27 105 -11 50
-15 68 -29 132 -3 12 -8 36 -10 52 -3 17 -8 37 -10 45 -5 17 -13 60 -21 110
-3 19 -7 42 -9 50 -2 8 -7 29 -10 45 -2 17 -7 41 -10 55 -2 13 -7 42 -10 65
-4 22 -9 54 -11 70 -7 36 -9 52 -18 125 -4 30 -9 66 -11 80 -8 53 -15 107 -20
163 -3 31 -7 82 -10 111 -3 30 -8 86 -10 123 -2 37 -8 118 -12 178 -14 210 -9
585 12 775 2 19 6 62 9 94 4 33 8 71 10 85 10 63 17 108 21 141 3 19 7 46 10
60 3 14 7 37 10 53 3 15 7 39 10 55 3 15 7 38 10 52 3 14 8 36 11 50 5 24 52
214 58 235 2 6 6 24 10 40 5 17 17 59 28 95 11 36 21 72 23 80 8 35 99 297
125 361 16 38 26 69 23 69 -3 0 -1 6 5 13 5 6 22 44 37 82 87 221 260 571 422
855 57 100 208 341 292 465 90 134 328 464 357 495 8 8 27 31 42 51 59 78 247
303 341 409 231 262 482 513 792 795 161 148 549 465 568 465 5 0 11 4 13 9
10 27 626 444 820 556 10 6 82 49 162 97 163 99 329 197 436 256 25 14 74 42
110 62 36 21 94 53 130 72 36 20 85 47 110 60 85 48 319 172 525 280 169 88
870 437 985 491 104 48 236 111 355 167 55 27 129 62 165 78 36 16 127 60 203
96 75 36 139 66 142 66 2 0 41 18 87 39 46 21 124 57 173 79 50 22 119 53 155
69 36 16 95 42 133 58 37 15 67 30 67 32 0 4 -539 1 -543 -3z m-5100 -12419
c77 -88 150 -169 162 -179 11 -11 21 -23 21 -27 0 -14 -276 292 -339 376 -33
43 18 -12 156 -170z"/>
<path d="M14835 49793 c-214 -180 -390 -330 -390 -334 0 -7 199 -250 340 -417
13 -15 61 -72 107 -127 1125 -1350 1662 -1990 1669 -1990 6 0 578 471 703 579
11 10 36 31 54 46 l33 27 -203 244 c-113 134 -514 615 -892 1069 -379 454
-698 836 -710 850 -12 14 -88 105 -170 203 -81 97 -149 177 -149 177 -1 -1
-177 -148 -392 -327z"/>
<path d="M55229 49576 c-19 -17 -56 -56 -83 -86 -28 -30 -91 -98 -140 -151
-185 -195 -393 -416 -471 -498 -44 -47 -116 -124 -161 -171 -44 -47 -237 -251
-429 -455 -379 -403 -549 -582 -883 -935 -34 -36 -62 -70 -62 -76 0 -7 21 -31
48 -54 26 -23 121 -113 212 -199 221 -209 320 -303 340 -321 10 -8 44 -42 78
-74 l60 -59 94 99 c51 54 125 132 165 174 39 41 84 89 99 105 26 29 245 260
410 435 44 47 96 102 115 123 l34 38 36 -33 c20 -18 95 -88 165 -155 71 -67
152 -143 180 -170 29 -26 119 -111 200 -189 82 -77 167 -156 189 -176 l40 -36
-55 -59 c-30 -32 -84 -89 -120 -128 -36 -38 -91 -97 -122 -130 -79 -83 -275
-291 -323 -342 -22 -23 -96 -101 -165 -174 -69 -72 -126 -134 -128 -138 -1 -4
66 -72 150 -151 84 -79 227 -214 318 -299 215 -204 213 -201 248 -234 l30 -29
65 69 c36 37 78 82 93 98 15 17 100 106 188 200 89 93 195 206 237 250 41 44
109 116 151 160 160 169 271 287 443 470 98 105 213 226 255 270 67 70 256
270 285 301 22 24 423 450 475 505 14 14 37 39 53 56 l27 29 -82 81 c-46 44
-123 118 -173 164 -49 46 -128 120 -175 165 -203 193 -313 294 -319 294 -4 0
-68 -64 -142 -142 -73 -79 -168 -179 -209 -222 -41 -43 -84 -89 -95 -100 -37
-41 -198 -211 -272 -289 l-74 -78 -27 21 c-15 12 -68 61 -117 108 -50 48 -165
157 -255 242 -91 85 -201 189 -245 231 -44 42 -99 94 -122 114 l-42 38 31 36
c17 20 72 79 122 132 50 52 131 138 180 190 48 52 152 162 230 244 79 83 162
171 185 197 l42 46 -98 95 c-54 51 -138 131 -187 178 -49 46 -128 120 -175
165 -47 45 -108 101 -135 125 -27 24 -65 61 -85 82 -54 59 -62 60 -102 23z"/>
<path d="M39865 49028 c205 -146 407 -294 515 -377 684 -524 1147 -925 1689
-1461 323 -320 566 -579 806 -860 54 -63 111 -130 126 -147 16 -18 29 -35 29
-38 0 -3 8 -13 18 -23 16 -16 259 -320 309 -387 263 -351 544 -755 668 -962
11 -18 50 -82 88 -143 37 -60 67 -114 67 -119 0 -5 3 -11 8 -13 6 -3 63 -97
122 -202 9 -17 33 -60 53 -96 20 -36 57 -103 82 -150 53 -98 285 -565 285
-573 0 -3 23 -52 50 -110 28 -58 50 -107 50 -110 0 -2 14 -35 32 -73 17 -38
32 -71 32 -74 1 -3 10 -26 20 -50 11 -25 27 -63 37 -85 79 -183 250 -656 330
-913 36 -115 69 -221 74 -242 2 -8 15 -53 28 -100 13 -47 27 -96 31 -110 4
-14 13 -50 22 -80 8 -30 17 -63 20 -72 19 -76 25 -101 30 -127 3 -14 7 -28 9
-31 2 -4 7 -22 10 -41 3 -19 11 -52 16 -74 6 -22 13 -49 16 -60 8 -36 13 -60
17 -80 2 -11 12 -54 21 -95 9 -41 18 -84 20 -95 8 -36 25 -120 30 -150 3 -16
7 -41 10 -55 3 -14 9 -50 15 -80 6 -30 12 -66 15 -80 3 -13 7 -40 10 -60 3
-20 7 -45 9 -57 6 -30 14 -81 22 -138 3 -27 8 -59 10 -70 2 -10 6 -35 8 -55
13 -93 17 -117 20 -135 2 -11 7 -47 10 -80 4 -33 9 -71 11 -85 2 -14 6 -55 10
-92 3 -37 8 -75 10 -86 2 -10 6 -54 10 -98 4 -43 9 -97 11 -119 2 -22 6 -71 9
-110 3 -38 7 -94 10 -123 3 -30 8 -104 11 -165 3 -62 7 -139 9 -172 8 -137 17
-600 12 -595 -3 3 -8 21 -11 40 -3 19 -8 46 -11 60 -3 14 -7 36 -10 50 -9 47
-15 75 -20 100 -3 14 -10 48 -16 75 -6 28 -12 59 -15 70 -2 11 -6 30 -8 43 -3
13 -7 31 -10 40 -3 9 -7 28 -10 42 -3 20 -22 105 -51 230 -4 17 -74 288 -80
310 -7 23 -51 188 -69 255 -9 33 -21 71 -26 85 -6 14 -12 36 -15 49 -2 13 -16
60 -31 105 -14 44 -27 88 -29 96 -4 20 -159 478 -173 510 -13 31 -24 62 -27
75 -8 30 -66 177 -86 217 -5 10 -9 22 -9 28 0 5 -11 34 -25 64 -14 30 -25 57
-25 60 0 7 -137 331 -150 355 -5 9 -28 59 -52 111 -44 98 -286 586 -312 630
-9 14 -45 79 -82 145 -397 714 -904 1410 -1468 2015 -114 121 -473 477 -586
580 -58 52 -107 97 -110 100 -37 40 -544 460 -556 460 -3 0 -3 -8 0 -17 3 -10
8 -30 11 -45 3 -16 7 -40 10 -55 10 -49 57 -196 88 -273 34 -87 71 -161 273
-560 82 -162 166 -331 186 -375 20 -44 47 -105 61 -135 79 -173 123 -276 211
-495 31 -77 61 -149 65 -160 5 -11 15 -36 21 -55 7 -19 19 -48 26 -65 33 -80
211 -595 219 -636 2 -10 8 -26 13 -36 6 -10 10 -21 11 -26 1 -13 32 -121 42
-147 5 -14 11 -34 14 -45 2 -11 11 -45 20 -75 9 -30 18 -63 20 -72 2 -9 14
-52 26 -95 12 -43 25 -94 30 -113 4 -19 19 -80 33 -135 15 -55 28 -109 30
-120 2 -11 14 -63 26 -115 26 -113 29 -126 36 -164 2 -16 6 -32 8 -35 2 -3 7
-24 10 -46 4 -22 8 -47 11 -55 2 -8 6 -31 9 -50 3 -19 8 -46 11 -60 2 -14 7
-36 10 -50 2 -14 7 -41 10 -60 3 -19 8 -47 10 -62 3 -16 7 -43 10 -60 3 -18 7
-44 10 -58 7 -37 14 -83 21 -131 3 -24 7 -53 9 -64 2 -11 6 -43 9 -71 4 -28 9
-61 11 -74 2 -13 7 -46 10 -74 3 -28 8 -73 11 -101 4 -27 8 -61 9 -75 1 -14 5
-52 9 -85 15 -141 31 -339 41 -510 8 -125 19 -526 19 -675 0 -218 -14 -632
-28 -805 -3 -44 -8 -116 -11 -160 -3 -44 -8 -100 -11 -125 -3 -25 -7 -67 -9
-95 -3 -27 -7 -66 -9 -85 -2 -19 -7 -66 -11 -105 -3 -38 -8 -81 -10 -95 -2
-14 -7 -47 -10 -75 -4 -27 -8 -61 -10 -75 -2 -14 -7 -47 -10 -75 -4 -27 -8
-61 -10 -75 -2 -14 -7 -47 -11 -75 -3 -27 -8 -59 -10 -70 -2 -11 -6 -38 -9
-60 -3 -22 -7 -51 -10 -65 -3 -13 -7 -42 -10 -65 -3 -22 -8 -47 -10 -55 -2 -8
-7 -33 -10 -55 -3 -23 -8 -52 -10 -65 -3 -14 -7 -37 -10 -52 -3 -16 -7 -40
-10 -55 -5 -27 -9 -48 -20 -103 -2 -14 -7 -38 -10 -55 -7 -44 -14 -74 -19 -93
-3 -9 -8 -30 -11 -47 -11 -63 -17 -92 -35 -170 -10 -45 -26 -115 -35 -156 -23
-107 -24 -109 -30 -129 -3 -10 -7 -27 -9 -37 -2 -10 -12 -47 -21 -83 -9 -36
-19 -73 -21 -83 -2 -10 -6 -27 -9 -37 -3 -10 -8 -27 -10 -37 -3 -10 -16 -61
-30 -113 -15 -52 -28 -102 -30 -110 -2 -8 -4 -15 -5 -15 -2 0 -7 -20 -15 -59
-3 -16 -8 -33 -11 -38 -3 -4 -7 -16 -9 -25 -7 -29 -31 -112 -65 -218 -17 -55
-32 -104 -34 -110 -8 -33 -121 -368 -156 -465 -23 -63 -48 -133 -55 -155 -7
-22 -24 -69 -38 -105 -115 -295 -143 -366 -174 -440 -46 -112 -48 -115 -79
-185 -14 -33 -34 -80 -44 -105 -19 -47 -104 -234 -193 -425 -28 -60 -112 -231
-188 -380 -128 -254 -168 -331 -242 -465 -17 -30 -41 -75 -55 -100 -14 -25
-51 -90 -82 -145 -32 -55 -67 -116 -78 -137 -93 -166 -366 -603 -548 -878
-118 -179 -320 -474 -344 -503 -5 -7 -73 -98 -149 -204 -77 -106 -144 -198
-150 -205 -6 -7 -89 -116 -186 -241 -669 -871 -1249 -1502 -2015 -2191 -533
-480 -1231 -985 -1900 -1377 -41 -24 -84 -49 -95 -56 -11 -6 -33 -19 -50 -27
-16 -8 -75 -40 -130 -71 -111 -62 -548 -281 -665 -335 -41 -18 -103 -46 -137
-62 -34 -15 -64 -28 -67 -28 -3 0 -33 -13 -68 -29 -69 -31 -180 -77 -328 -136
-100 -39 -127 -49 -225 -85 -33 -12 -69 -26 -80 -31 -22 -9 -441 -149 -465
-155 -8 -2 -85 -24 -170 -49 -85 -26 -162 -48 -170 -50 -8 -2 -64 -17 -125
-34 -60 -16 -121 -32 -135 -35 -14 -3 -45 -10 -70 -17 -25 -6 -52 -12 -60 -14
-8 -2 -33 -8 -55 -13 -22 -6 -53 -14 -70 -17 -33 -6 -46 -9 -137 -30 -13 -3
-34 -7 -48 -10 -43 -8 -74 -14 -100 -20 -26 -6 -57 -12 -100 -20 -14 -3 -35
-7 -46 -9 -12 -2 -37 -7 -55 -10 -19 -3 -45 -8 -59 -11 -14 -3 -41 -8 -60 -11
-67 -10 -85 -13 -117 -18 -18 -3 -45 -8 -60 -10 -77 -12 -120 -19 -138 -22
-11 -2 -40 -6 -65 -9 -70 -8 -133 -17 -155 -21 -11 -2 -45 -6 -75 -9 -55 -6
-91 -10 -165 -19 -22 -3 -67 -8 -100 -11 -33 -3 -82 -7 -110 -10 -114 -13
-316 -27 -580 -42 -299 -16 -1258 -9 -1555 12 -25 2 -88 6 -140 9 -92 6 -168
12 -260 21 -25 2 -74 7 -110 10 -167 15 -240 22 -290 30 -14 2 -50 7 -80 10
-30 3 -71 7 -90 10 -19 2 -57 7 -85 11 -27 3 -59 7 -70 9 -11 2 -44 6 -74 10
-30 4 -63 8 -74 11 -11 2 -41 6 -66 9 -25 3 -57 7 -71 10 -14 3 -45 8 -70 11
-25 3 -54 8 -65 10 -10 2 -37 6 -60 9 -22 3 -47 8 -55 10 -8 2 -33 7 -55 10
-23 3 -52 8 -65 10 -14 3 -36 7 -50 10 -14 2 -38 7 -55 9 -16 3 -41 8 -55 11
-13 2 -42 7 -64 11 -22 3 -43 7 -46 9 -3 2 -25 6 -50 10 -25 4 -47 8 -50 10
-3 2 -21 6 -40 9 -36 6 -65 11 -110 21 -14 3 -34 7 -45 9 -20 5 -157 35 -185
41 -8 2 -49 11 -90 20 -111 24 -110 24 -130 30 -10 3 -27 8 -37 10 -25 5 -128
29 -175 41 -40 9 -43 10 -63 17 -11 3 -31 8 -45 11 -34 7 -51 11 -145 36 -44
12 -89 24 -99 26 -10 2 -33 8 -51 14 -18 6 -41 12 -51 15 -10 2 -129 36 -264
75 -135 39 -249 72 -255 74 -5 1 -36 10 -67 20 -32 10 -59 17 -60 17 -2 -1
-33 10 -70 23 -38 14 -68 23 -68 20 0 -3 -9 0 -21 6 -11 6 -28 13 -37 15 -20
4 -385 125 -482 160 -36 13 -105 38 -155 55 -138 49 -418 150 -440 160 -11 4
-47 18 -80 30 -33 12 -79 31 -102 41 -24 11 -46 19 -50 19 -5 0 -37 12 -73 26
-36 14 -108 43 -160 64 -112 45 -436 177 -465 190 -11 5 -85 37 -165 70 -80
34 -169 72 -198 86 -29 13 -55 24 -57 24 -5 0 -82 34 -183 81 -34 16 -64 29
-66 29 -3 0 -37 15 -78 34 -40 18 -125 57 -188 85 -63 29 -142 65 -175 81 -33
15 -98 46 -145 68 -47 22 -121 56 -165 77 -135 63 -318 129 -450 161 -5 1 -29
9 -52 18 l-42 15 -26 -82 c-14 -45 -27 -91 -30 -102 -2 -11 -11 -45 -20 -75
-9 -30 -18 -63 -20 -73 -4 -18 51 -85 315 -382 223 -253 672 -728 837 -889 6
-6 67 -65 135 -131 131 -128 383 -366 483 -456 33 -30 62 -56 65 -59 3 -3 43
-39 90 -80 47 -41 99 -87 115 -102 71 -64 346 -293 545 -452 770 -617 1546
-1131 2375 -1573 107 -57 701 -353 709 -353 2 0 48 -20 101 -45 125 -59 451
-197 625 -264 74 -29 149 -59 165 -66 17 -7 53 -20 80 -30 28 -9 59 -21 70
-25 79 -33 605 -209 605 -203 0 3 6 1 13 -5 7 -6 24 -13 37 -16 14 -3 108 -30
210 -61 102 -30 198 -58 214 -61 16 -3 32 -7 35 -9 6 -3 219 -61 264 -71 9 -2
25 -6 35 -9 38 -10 405 -95 430 -100 15 -3 37 -7 50 -10 12 -3 32 -7 45 -10
12 -3 33 -7 47 -10 14 -3 36 -7 50 -10 14 -3 36 -7 50 -10 14 -3 36 -7 50 -10
14 -3 39 -7 55 -10 17 -3 41 -8 55 -10 77 -16 111 -22 165 -31 17 -2 55 -9 85
-14 100 -17 159 -27 215 -35 23 -3 50 -7 61 -9 12 -2 45 -7 74 -11 29 -4 60
-8 69 -10 9 -1 41 -6 72 -9 31 -4 65 -8 75 -10 20 -4 97 -13 179 -21 28 -3 61
-7 75 -10 14 -2 59 -7 100 -10 41 -3 86 -8 100 -10 23 -3 54 -6 229 -20 446
-36 774 -49 1281 -49 340 0 728 9 875 19 28 2 100 6 160 10 61 3 135 7 165 10
30 2 91 7 135 10 103 7 180 14 230 20 22 2 74 7 115 10 72 6 113 10 190 20 19
2 58 7 85 10 84 9 176 20 255 30 19 2 60 7 90 11 30 4 64 8 75 9 11 2 43 6 70
10 28 3 62 8 76 11 15 2 44 6 65 9 22 3 48 7 60 9 12 2 45 7 74 11 29 4 62 9
74 11 11 2 38 6 61 9 38 6 127 21 171 29 12 2 38 7 58 10 20 3 52 9 72 12 20
3 46 8 58 10 11 2 35 7 51 9 17 3 55 10 85 16 30 6 64 12 75 13 11 2 81 16
155 31 74 14 144 29 155 31 11 2 31 6 45 9 14 3 36 7 50 10 14 3 36 7 50 10
54 11 71 15 93 20 12 3 34 7 49 10 16 3 58 12 95 21 38 9 79 18 93 20 14 3 33
7 42 10 18 5 47 12 88 20 14 3 33 7 42 10 9 3 27 7 40 10 13 3 32 7 43 9 17 4
460 115 520 131 11 3 30 7 41 9 12 3 59 16 105 29 71 20 122 33 144 37 2 1 42
12 87 26 46 13 94 26 107 29 13 3 32 9 43 15 10 5 18 7 18 5 0 -3 12 -1 28 5
15 6 34 12 42 14 8 2 62 18 120 35 58 17 119 35 135 40 17 5 60 18 98 29 37
12 95 30 130 40 34 10 76 24 92 30 l30 11 -35 -31 c-19 -17 -48 -44 -65 -59
-189 -171 -825 -650 -864 -650 -5 0 -11 -4 -13 -8 -1 -4 -39 -30 -83 -57 -98
-59 -297 -175 -300 -175 -2 0 -32 -16 -67 -36 -73 -42 -403 -208 -498 -252
-199 -91 -310 -138 -470 -201 -80 -32 -154 -62 -165 -66 -11 -4 -27 -9 -35
-11 -8 -2 -23 -8 -35 -13 -16 -9 -163 -64 -200 -75 -5 -2 -17 -6 -25 -9 -26
-10 -185 -61 -195 -63 -5 -1 -32 -9 -60 -19 -62 -21 -242 -74 -274 -81 -13 -3
-34 -10 -45 -16 -12 -6 -23 -11 -26 -10 -3 1 -23 -3 -45 -9 -22 -6 -47 -13
-55 -15 -8 -2 -42 -11 -75 -19 -33 -9 -71 -18 -84 -21 -14 -3 -28 -7 -31 -9
-4 -2 -20 -7 -36 -9 -58 -11 -77 -16 -108 -25 -17 -6 -43 -13 -58 -16 -28 -5
-51 -10 -98 -20 -14 -4 -36 -8 -50 -11 -14 -3 -45 -10 -70 -15 -25 -6 -56 -13
-70 -15 -14 -2 -38 -7 -55 -11 -16 -4 -37 -8 -45 -9 -15 -3 -76 -15 -95 -19
-5 -2 -28 -6 -50 -9 -22 -4 -47 -8 -55 -11 -8 -2 -31 -6 -50 -9 -19 -3 -46 -8
-60 -10 -52 -10 -146 -26 -184 -32 -21 -3 -48 -7 -60 -10 -11 -2 -42 -6 -67
-9 -25 -3 -56 -8 -69 -10 -13 -3 -42 -7 -65 -10 -22 -4 -51 -8 -65 -10 -14 -2
-44 -6 -67 -9 -24 -3 -62 -9 -85 -12 -24 -3 -54 -7 -68 -9 -14 -2 -54 -7 -90
-10 -36 -4 -72 -8 -80 -10 -8 -1 -46 -6 -83 -10 -37 -3 -76 -8 -86 -10 -9 -2
-53 -6 -97 -10 -43 -3 -90 -8 -104 -10 -26 -4 -128 -13 -220 -21 -30 -2 -77
-6 -105 -9 -125 -11 -212 -17 -400 -30 -49 -3 -117 -8 -150 -10 -93 -6 -251
-15 -345 -20 -273 -13 -447 -21 -567 -25 -54 -2 -73 -7 -73 -16 0 -8 0 -17 0
-21 0 -5 3 -8 8 -9 15 -1 118 -16 147 -21 17 -3 39 -7 50 -8 11 -2 34 -6 50
-9 17 -3 44 -8 60 -10 17 -3 41 -8 55 -11 13 -2 40 -7 60 -10 20 -3 45 -7 56
-9 11 -2 47 -7 79 -11 33 -4 69 -9 80 -12 39 -7 181 -17 260 -17 71 1 152 5
330 20 28 2 93 6 145 9 52 3 120 8 150 10 30 2 105 7 165 10 61 4 135 8 165
10 86 5 256 15 355 20 50 3 131 7 180 10 50 3 135 7 190 10 55 3 138 8 185 10
144 8 282 16 355 20 181 10 537 31 655 40 30 2 91 7 135 10 166 11 298 21 395
30 25 2 79 7 120 10 41 3 91 8 110 10 19 3 67 7 105 10 66 5 123 11 205 20 19
2 60 7 90 10 125 13 147 15 180 20 19 2 60 7 91 10 31 3 65 7 75 9 11 2 48 7
84 11 36 3 72 8 80 10 8 2 40 7 70 10 30 3 69 8 85 11 54 9 80 13 120 19 23 3
50 7 61 9 12 2 45 7 75 11 30 4 56 8 59 10 3 2 30 6 60 10 30 3 73 10 95 15
22 5 60 12 85 15 24 4 47 8 50 10 3 2 26 6 50 10 25 3 101 18 170 32 69 13
134 27 145 29 19 4 30 6 88 19 12 3 36 8 52 11 17 3 68 14 115 25 90 22 107
26 154 35 16 2 32 7 36 9 4 2 20 7 36 9 16 3 119 29 229 56 110 28 207 53 215
55 72 17 368 100 515 145 55 17 105 32 110 33 47 13 192 60 350 113 105 36
197 66 205 68 20 6 205 73 375 136 127 47 168 63 230 91 11 5 49 20 85 33 69
26 370 153 480 203 36 17 88 40 115 53 125 56 235 109 425 204 185 93 248 126
415 216 211 115 536 306 720 425 796 512 1440 1028 2065 1656 441 443 758 811
1133 1314 201 270 193 259 351 493 353 522 614 977 980 1707 142 283 195 393
280 578 20 42 52 112 72 155 20 42 52 113 71 157 19 44 48 108 64 143 16 35
29 66 29 69 0 3 10 27 21 52 12 25 25 55 30 66 4 11 17 40 27 65 11 25 34 81
52 125 18 44 41 100 52 124 11 25 21 52 23 60 2 9 18 50 35 91 39 93 221 579
225 602 2 9 8 25 13 35 12 22 249 732 256 765 3 13 10 39 16 58 7 19 22 71 35
115 13 44 39 134 58 200 34 119 48 172 46 177 0 2 5 16 11 32 6 16 31 106 55
200 24 94 47 180 50 191 11 43 57 241 61 265 3 14 8 34 11 45 7 21 8 24 16 65
3 14 10 45 16 70 5 25 12 56 15 70 3 14 7 36 10 50 8 38 26 122 31 148 2 13 6
31 9 40 3 9 8 31 11 47 2 17 7 41 10 55 3 14 8 39 10 55 3 17 8 37 10 45 2 8
6 31 9 50 5 33 9 50 21 110 3 14 8 42 11 64 3 21 8 48 10 60 3 11 7 35 9 51 3
17 7 41 10 55 3 14 7 41 10 60 3 19 7 46 10 60 3 14 7 43 10 65 3 22 7 51 10
65 3 13 7 42 10 65 4 22 8 51 10 65 2 14 7 45 10 70 8 55 12 83 20 135 3 22 8
58 10 80 2 22 7 56 9 75 12 83 26 207 41 350 11 109 17 160 20 190 2 19 7 64
9 100 3 36 9 94 12 130 10 118 13 144 20 245 4 55 8 116 9 135 26 361 39 773
39 1220 0 296 -8 663 -19 860 -7 148 -17 300 -21 345 -2 28 -6 82 -9 120 -3
39 -8 90 -10 115 -2 25 -7 74 -10 110 -3 36 -7 85 -10 110 -3 25 -7 68 -10 95
-2 28 -7 70 -10 95 -3 25 -8 68 -11 95 -3 28 -7 61 -9 75 -2 14 -7 49 -10 79
-4 30 -8 63 -10 73 -2 11 -7 47 -10 81 -4 34 -8 64 -10 67 -2 3 -6 32 -9 65
-4 33 -9 67 -11 75 -2 8 -6 33 -10 55 -3 22 -8 52 -10 66 -3 14 -7 41 -9 60
-3 19 -7 46 -10 59 -3 14 -8 43 -11 65 -3 22 -7 47 -10 55 -2 8 -6 31 -9 50
-3 19 -8 46 -11 60 -3 14 -8 40 -11 59 -7 42 -11 63 -24 126 -6 28 -12 59 -14
70 -6 30 -37 177 -42 200 -3 11 -7 29 -9 40 -3 11 -7 31 -10 45 -4 14 -8 36
-11 50 -3 14 -10 43 -16 65 -5 22 -12 51 -15 65 -2 14 -25 104 -49 200 -25 96
-47 182 -49 191 -2 9 -8 34 -15 55 -13 44 -41 144 -44 159 -12 50 -66 233 -97
330 -41 132 -172 524 -195 590 -37 100 -65 177 -74 200 -19 48 -41 107 -76
200 -21 55 -41 104 -46 110 -4 5 -8 15 -8 22 0 7 -9 32 -19 56 -11 23 -32 71
-46 107 -15 36 -33 79 -40 95 -8 17 -25 57 -39 90 -13 33 -40 95 -60 138 -20
42 -36 79 -36 81 0 15 -318 662 -411 836 -131 246 -282 511 -417 733 -114 187
-104 171 -182 292 -36 55 -67 105 -69 110 -8 19 -205 310 -315 465 -604 852
-1268 1588 -2071 2296 -587 517 -1383 1084 -2085 1486 -170 97 -201 114 -390
218 -77 42 -674 341 -745 373 -22 10 -85 39 -140 64 -55 25 -120 54 -145 65
-25 11 -58 26 -75 33 -118 53 -387 163 -640 262 -22 8 -49 19 -60 24 -11 5
-45 18 -75 29 -30 10 -86 31 -125 45 -105 39 -237 86 -260 92 -11 3 52 -46
140 -109z"/>
<path d="M13610 48520 c-102 -26 -159 -50 -241 -101 -225 -138 -282 -190
-1185 -1103 l-522 -526 337 -336 c185 -184 698 -694 1140 -1132 442 -438 818
-813 837 -832 l34 -35 360 361 c198 199 360 366 360 371 0 6 -30 40 -67 77
-38 37 -249 247 -471 468 l-403 401 48 49 c49 51 130 103 192 125 33 11 170
11 216 0 11 -3 47 -12 80 -21 33 -9 67 -19 75 -21 8 -2 46 -13 84 -25 38 -12
76 -23 85 -25 9 -2 45 -13 81 -24 36 -12 74 -23 85 -26 11 -2 88 -24 170 -49
382 -113 431 -127 445 -131 8 -2 43 -12 77 -23 l62 -19 406 409 c223 225 403
413 400 418 -2 4 -15 10 -27 13 -22 5 -77 22 -308 95 -52 17 -198 62 -325 102
-126 39 -254 80 -283 91 -46 16 -99 31 -162 44 -23 4 -110 17 -150 21 -19 3
-84 6 -144 8 -117 3 -183 -11 -308 -67 l-57 -25 52 101 c64 126 77 157 94 227
53 221 28 447 -68 630 -112 210 -307 386 -534 481 -114 48 -340 62 -465 29z
m24 -970 c84 -32 174 -131 198 -217 15 -54 12 -132 -5 -173 -43 -99 -167 -258
-327 -417 l-163 -163 -136 135 c-75 74 -161 158 -191 188 -30 30 -74 75 -98
99 l-43 45 133 138 c347 359 467 428 632 365z"/>
<path d="M58740 45975 c-36 -13 -74 -27 -85 -31 -11 -3 -22 -7 -25 -8 -3 -1
-36 -12 -75 -24 -38 -13 -79 -27 -90 -32 -11 -5 -83 -30 -160 -55 -212 -71
-518 -175 -535 -182 -8 -3 -19 -7 -25 -8 -14 -4 -105 -34 -500 -170 -187 -64
-347 -118 -355 -120 -19 -5 -100 -33 -120 -42 -8 -3 -17 -7 -20 -8 -45 -14
-223 -73 -460 -155 -162 -56 -329 -112 -370 -125 -41 -14 -147 -50 -235 -81
-88 -30 -173 -58 -188 -62 -30 -8 -36 1 267 -367 63 -76 370 -450 371 -453 3
-3 84 28 146 57 24 11 105 45 179 76 74 31 148 63 163 70 15 8 33 12 40 9 7
-3 91 -102 187 -220 96 -119 187 -230 202 -247 14 -18 98 -119 186 -226 l160
-194 -156 -230 c-85 -127 -155 -235 -155 -242 0 -6 51 -74 114 -150 63 -76
212 -258 332 -404 120 -146 221 -267 226 -269 4 -1 48 66 96 150 49 84 128
221 177 305 48 83 96 167 106 185 65 114 761 1318 863 1493 48 83 96 166 107
185 11 19 44 78 75 130 30 52 110 192 178 310 68 118 126 217 129 220 3 3 13
22 23 43 l17 38 -132 161 c-387 471 -523 636 -547 665 -14 18 -30 33 -36 32
-5 -1 -39 -12 -75 -24z m-267 -984 c-122 -191 -650 -981 -655 -981 -4 0 -43
44 -87 98 -43 53 -144 176 -224 273 l-145 177 132 52 c72 29 135 57 141 62 5
4 15 8 22 8 7 0 36 11 65 24 48 21 84 37 98 41 3 1 22 9 44 18 21 9 40 17 42
17 2 0 23 8 47 19 23 10 83 35 132 56 50 20 104 42 120 50 17 7 77 32 135 55
58 23 112 46 120 51 28 16 32 9 13 -20z"/>
<path d="M10408 45281 c-23 -31 -59 -76 -79 -101 -19 -25 -77 -99 -128 -165
-51 -66 -98 -127 -104 -135 -33 -40 -314 -407 -321 -418 -5 -8 18 -54 62 -125
66 -106 384 -623 463 -752 20 -33 78 -127 129 -210 51 -82 104 -168 117 -190
13 -22 61 -101 107 -175 46 -74 251 -407 456 -740 204 -333 390 -633 411 -668
l40 -63 -108 6 c-59 3 -139 8 -178 10 -38 3 -113 7 -165 10 -52 3 -126 8 -165
10 -38 2 -124 7 -190 11 -154 10 -256 10 -325 1 -30 -4 -73 -9 -95 -12 -22 -3
-60 -10 -85 -15 -25 -6 -54 -12 -65 -14 -70 -15 -147 -58 -254 -144 -33 -27
-42 -31 -38 -16 42 142 52 209 52 344 0 128 -6 171 -35 269 -69 232 -228 416
-473 545 -76 40 -177 80 -232 92 -87 19 -123 22 -220 20 -117 -4 -139 -7 -225
-33 -194 -60 -342 -186 -538 -460 -63 -89 -298 -470 -418 -680 -22 -38 -249
-422 -377 -638 -49 -82 -126 -211 -170 -285 -44 -74 -81 -138 -83 -142 -2 -3
15 -17 38 -31 46 -25 101 -58 538 -317 151 -90 289 -171 305 -180 17 -10 127
-75 245 -145 118 -70 229 -136 245 -145 17 -9 64 -38 106 -64 42 -25 81 -46
87 -46 6 0 12 -3 14 -8 2 -6 144 -93 240 -147 10 -5 71 -41 135 -80 65 -38
127 -75 138 -81 11 -6 88 -51 170 -100 328 -197 586 -346 589 -343 4 4 137
228 374 629 64 107 123 209 133 225 l18 30 -202 119 c-111 66 -292 174 -402
239 -110 66 -220 131 -245 145 -25 14 -83 48 -130 76 -47 28 -96 57 -110 64
-14 7 -34 20 -44 27 -19 14 -19 15 0 50 58 108 148 190 243 222 63 20 259 23
596 9 200 -9 281 -12 530 -21 94 -4 200 -8 237 -10 l67 -3 29 47 c16 25 83
136 147 246 65 110 161 272 213 360 52 88 104 176 114 195 47 84 64 106 540
717 65 83 121 158 124 167 3 9 -55 97 -155 236 -89 122 -161 225 -161 231 0 8
188 254 515 674 56 72 120 156 144 187 l42 56 52 -20 c29 -11 81 -32 117 -45
62 -24 90 -35 135 -54 11 -5 65 -26 120 -48 l100 -40 33 37 c40 44 626 799
630 813 2 5 -3 9 -11 9 -7 0 -40 9 -73 19 -32 10 -113 35 -179 56 -66 20 -131
40 -145 46 -14 5 -34 11 -45 13 -11 2 -47 13 -80 24 -33 11 -94 30 -135 42
-41 13 -105 33 -142 46 -38 13 -68 21 -68 19 0 -3 -17 2 -37 10 -41 16 -531
168 -658 205 -16 4 -50 15 -75 23 -25 8 -70 22 -100 32 -30 9 -156 48 -280 87
-124 38 -229 71 -235 72 -5 1 -26 7 -45 13 -92 29 -267 82 -278 84 -4 0 -14 5
-23 10 -9 4 -27 10 -40 12 -13 3 -51 14 -84 25 -82 27 -205 65 -295 92 -41 12
-93 28 -115 36 -22 8 -84 27 -137 43 l-97 29 -43 -57z m672 -1037 c124 -47
241 -91 260 -99 19 -7 127 -48 240 -90 113 -42 214 -80 225 -85 11 -4 46 -18
77 -31 l57 -22 -56 -71 c-30 -39 -128 -164 -216 -278 -88 -115 -163 -208 -167
-208 -7 0 -97 121 -119 160 -8 14 -17 27 -21 30 -3 3 -93 129 -200 280 -106
151 -231 328 -277 393 -46 65 -83 120 -83 122 0 3 12 0 28 -6 15 -6 128 -49
252 -95z m-2085 -2640 c102 -50 166 -132 186 -239 7 -40 -23 -169 -56 -242 -8
-17 -15 -35 -15 -40 0 -17 -31 -74 -147 -270 l-113 -192 -68 40 c-37 22 -74
44 -82 49 -8 5 -67 39 -130 76 -63 36 -127 75 -142 85 -15 11 -30 19 -32 19
-3 0 -31 16 -61 36 l-56 35 19 32 c11 18 50 84 87 147 175 296 229 374 303
435 85 71 198 82 307 29z"/>
<path d="M33288 44705 c-1 -1 -38 -6 -81 -10 -43 -3 -88 -8 -100 -10 -12 -2
-38 -6 -57 -9 -19 -3 -44 -7 -55 -9 -35 -7 -100 -20 -105 -22 -3 -1 -21 -5
-40 -9 -260 -59 -554 -188 -790 -346 -313 -210 -603 -497 -1255 -1240 -142
-162 -290 -328 -327 -369 -37 -41 -68 -80 -68 -85 0 -6 20 -32 43 -57 23 -25
70 -76 104 -114 l62 -68 58 51 c32 27 83 76 113 108 29 33 101 109 160 170 58
61 127 135 154 165 81 89 336 346 416 419 228 207 432 337 692 441 95 38 243
88 261 89 4 0 22 6 40 13 17 8 50 18 72 22 50 10 48 10 120 28 33 8 78 18 100
23 22 4 45 8 50 10 21 5 72 13 120 20 28 3 59 8 70 10 137 26 650 26 785 -1
13 -2 42 -7 65 -10 89 -13 231 -53 345 -97 83 -31 326 -151 405 -198 28 -17
65 -38 83 -47 17 -9 32 -20 32 -25 0 -4 4 -8 10 -8 5 0 49 -26 97 -57 48 -32
93 -60 98 -63 6 -3 129 -84 275 -181 146 -96 300 -197 343 -223 76 -48 93 -62
60 -52 -10 3 -30 8 -45 11 -16 3 -38 7 -50 10 -13 3 -32 7 -43 9 -11 3 -51 12
-90 21 -38 9 -80 19 -92 21 -12 2 -34 9 -48 14 -14 5 -25 7 -25 5 0 -2 -11 0
-25 5 -14 5 -36 12 -48 14 -12 3 -32 7 -44 10 -13 4 -32 8 -44 11 -11 2 -29 7
-39 10 -10 3 -27 8 -37 10 -10 2 -79 19 -153 39 -74 19 -146 37 -160 40 -14 3
-35 7 -47 10 -13 4 -31 8 -41 10 -9 2 -35 9 -57 14 -22 6 -53 13 -70 16 -16 3
-41 7 -55 11 -29 6 -63 13 -105 20 -16 3 -43 8 -60 12 -16 3 -39 7 -50 8 -11
2 -39 6 -62 9 -149 23 -239 30 -408 29 -140 0 -246 -6 -305 -18 -14 -3 -41 -8
-60 -11 -35 -5 -141 -34 -215 -59 -230 -76 -492 -218 -940 -508 -115 -75 -235
-152 -265 -170 -215 -133 -251 -154 -317 -189 -42 -21 -55 -38 -30 -38 6 -1
30 -9 52 -20 22 -11 46 -19 53 -20 7 0 20 -4 30 -10 9 -5 46 -21 82 -36 95
-38 119 -49 295 -134 621 -302 1106 -691 1499 -1203 163 -213 350 -535 451
-777 15 -36 33 -78 40 -95 32 -74 116 -309 120 -335 0 -3 11 -38 23 -79 13
-40 38 -135 57 -210 32 -130 37 -154 50 -226 3 -16 8 -43 12 -60 3 -16 7 -37
8 -45 4 -27 15 -95 20 -120 3 -14 8 -45 11 -70 2 -25 7 -56 9 -70 2 -14 7 -47
10 -75 3 -27 7 -68 9 -90 29 -270 29 -726 0 -965 -9 -74 -21 -157 -29 -200 -3
-14 -7 -41 -10 -60 -3 -19 -13 -64 -21 -100 -9 -36 -18 -75 -20 -87 -2 -12 -8
-33 -13 -45 -5 -13 -9 -27 -10 -33 -6 -42 -56 -205 -77 -252 -8 -17 -14 -36
-14 -43 0 -7 -6 -26 -14 -43 -8 -18 -38 -86 -66 -152 -158 -365 -400 -728
-669 -1008 -56 -58 -213 -213 -271 -268 -52 -49 -292 -238 -395 -310 -600
-424 -1400 -782 -2580 -1155 -60 -20 -148 -47 -195 -61 -47 -13 -114 -34 -150
-45 -36 -11 -78 -23 -95 -28 -16 -4 -149 -43 -295 -85 -280 -81 -393 -113
-424 -120 -11 -2 -40 -11 -65 -19 -25 -7 -64 -19 -86 -25 -22 -6 -80 -23 -130
-37 -49 -14 -98 -27 -108 -29 -10 -2 -27 -7 -37 -10 -10 -3 -28 -8 -39 -10
-12 -3 -31 -7 -43 -10 -28 -6 -76 -16 -148 -29 -19 -3 -44 -8 -55 -10 -11 -2
-49 -7 -85 -11 -36 -4 -74 -9 -84 -11 -79 -15 -375 -34 -761 -49 -333 -13
-396 -15 -485 -20 -84 -4 -219 -13 -320 -20 -19 -2 -48 -3 -64 -4 -41 -1 -31
-9 109 -81 200 -104 270 -138 460 -225 202 -92 532 -220 725 -280 47 -15 94
-31 105 -36 20 -8 49 -16 82 -24 10 -2 56 -16 103 -30 47 -14 94 -27 105 -30
11 -2 82 -20 158 -39 76 -19 157 -38 180 -41 23 -4 45 -9 49 -11 7 -4 92 -22
143 -29 17 -3 41 -7 55 -10 14 -2 36 -7 50 -10 33 -6 76 -13 125 -19 22 -3 49
-8 61 -10 12 -2 45 -7 75 -11 30 -3 65 -8 79 -10 14 -3 54 -7 90 -11 36 -3 79
-8 95 -10 17 -2 66 -6 110 -9 44 -4 98 -8 120 -10 339 -29 918 -21 1345 20 19
2 69 6 110 10 41 4 89 9 105 11 17 2 53 6 80 9 28 4 61 8 75 10 14 2 45 7 70
10 25 3 56 8 70 10 14 2 45 7 70 10 25 3 59 9 75 11 17 3 44 8 60 10 42 7 65
11 103 18 17 3 46 8 62 11 44 7 82 14 105 19 11 2 70 14 130 26 61 12 119 23
130 26 11 2 31 6 45 9 30 5 247 54 313 71 12 3 32 7 45 10 12 2 63 15 112 28
50 14 90 23 90 21 0 -2 19 2 43 10 l42 15 -30 -25 c-85 -72 -465 -316 -620
-399 -27 -15 -57 -31 -65 -36 -21 -13 -348 -170 -354 -170 -3 0 -29 -11 -58
-25 -141 -65 -481 -185 -663 -235 -16 -4 -73 -19 -125 -33 -93 -26 -245 -60
-360 -82 -14 -3 -36 -7 -50 -10 -14 -3 -38 -7 -55 -10 -16 -2 -41 -7 -55 -9
-14 -3 -43 -8 -65 -11 -39 -6 -58 -9 -135 -20 -22 -3 -58 -8 -81 -11 -52 -7
-98 -12 -184 -19 -38 -3 -83 -8 -100 -10 -223 -27 -1014 -27 -1315 0 -25 2
-81 7 -125 10 -44 4 -93 8 -110 10 -16 1 -63 6 -102 9 -40 4 -81 9 -92 11 -11
2 -52 7 -92 10 -40 4 -82 9 -93 11 -20 4 -65 10 -141 20 -22 3 -51 7 -65 9
-14 2 -45 7 -70 11 -49 7 -69 10 -115 18 -16 3 -46 7 -65 10 -19 3 -46 8 -60
11 -14 2 -36 7 -50 10 -14 2 -41 7 -60 10 -19 3 -42 8 -50 10 -8 2 -28 7 -45
10 -49 8 -105 20 -145 29 -14 3 -38 8 -55 11 -16 3 -39 8 -50 10 -45 10 -66
15 -87 21 -13 3 -34 7 -48 10 -14 3 -47 12 -75 20 -27 8 -51 14 -52 14 -2 1
-8 2 -15 4 -33 9 -155 38 -171 41 -9 2 -21 6 -25 9 -5 3 -20 7 -33 9 -65 12
-641 195 -739 235 -22 9 -56 22 -70 27 -3 1 -14 5 -25 9 -11 4 -45 17 -75 29
-86 32 -359 145 -418 172 -29 14 -54 25 -57 25 -21 0 -616 297 -740 370 -16
10 -50 29 -75 42 -106 59 -340 199 -460 276 -150 97 -340 225 -351 238 -6 8
-15 14 -20 14 -11 0 -101 65 -299 214 -405 305 -768 617 -1113 956 -348 341
-483 483 -814 855 -85 96 -279 328 -380 455 -46 58 -90 113 -98 122 -238 292
-650 859 -962 1328 -133 199 -330 504 -374 578 -57 96 -263 429 -270 437 -6 6
-7 -6 -4 -30 3 -22 8 -58 10 -80 5 -43 15 -121 21 -170 2 -16 6 -55 9 -85 3
-30 8 -66 10 -80 3 -14 7 -50 10 -80 3 -30 7 -72 10 -92 3 -21 7 -56 10 -78 3
-22 7 -57 10 -77 2 -21 7 -58 10 -83 13 -117 18 -155 31 -265 7 -56 9 -75 18
-160 4 -33 9 -78 13 -100 3 -22 7 -56 9 -75 2 -19 6 -53 8 -75 11 -78 17 -131
21 -169 3 -21 7 -55 9 -75 6 -44 18 -137 21 -171 8 -72 16 -137 19 -155 2 -11
7 -49 10 -85 4 -36 8 -75 10 -86 2 -11 7 -49 10 -85 4 -36 9 -76 11 -90 2 -13
6 -49 10 -79 3 -30 8 -71 10 -90 3 -19 7 -57 10 -85 3 -27 7 -66 10 -85 2 -19
7 -55 9 -80 5 -44 12 -99 21 -170 6 -47 17 -129 20 -160 2 -14 6 -52 9 -85 4
-33 9 -76 11 -95 3 -19 7 -57 10 -85 4 -27 8 -61 10 -75 2 -14 7 -50 10 -80 3
-30 8 -66 10 -80 2 -14 7 -52 10 -85 5 -58 7 -74 21 -180 8 -59 12 -94 13
-118 1 -16 8 -17 59 -12 105 10 156 16 163 20 3 3 3 26 -1 52 -5 27 -11 73
-15 102 -4 30 -8 61 -10 70 -3 17 -12 80 -20 151 -3 25 -8 56 -10 70 -4 29
-13 90 -19 140 -3 19 -7 49 -10 65 -2 17 -8 55 -11 85 -3 30 -9 69 -12 85 -3
17 -6 41 -8 55 -1 14 -5 43 -9 65 -3 22 -8 60 -11 85 -3 25 -7 54 -9 65 -2 11
-7 47 -10 80 -7 60 -14 107 -22 156 -2 15 -6 47 -9 70 -3 24 -8 55 -10 69 -2
14 -7 45 -10 70 -9 75 -15 124 -20 150 -3 14 -7 45 -10 70 -3 25 -8 62 -10 82
-6 37 -1 42 50 54 6 1 56 15 113 30 56 15 104 25 106 23 7 -8 351 -695 363
-724 52 -137 85 -237 109 -337 7 -30 15 -63 18 -73 2 -5 6 -28 10 -50 5 -22
14 -65 22 -95 7 -30 15 -68 18 -85 7 -36 14 -71 21 -105 8 -39 13 -64 19 -106
3 -22 8 -50 11 -64 7 -34 13 -65 25 -130 6 -30 12 -66 15 -80 3 -14 7 -41 10
-60 3 -19 7 -46 10 -60 2 -14 7 -36 10 -50 2 -14 7 -38 9 -55 8 -51 15 -86 31
-165 2 -14 7 -38 10 -55 3 -16 7 -41 10 -55 3 -14 7 -36 10 -50 3 -14 7 -34 9
-45 18 -81 48 -214 52 -235 10 -51 64 -248 93 -340 34 -112 198 -608 208 -630
3 -8 7 -17 8 -20 2 -7 3 -8 69 -190 32 -85 61 -164 66 -175 4 -11 29 -74 55
-140 27 -66 59 -143 72 -172 12 -28 23 -54 23 -57 0 -2 16 -39 35 -80 19 -42
35 -79 35 -82 0 -14 238 -490 308 -614 177 -317 375 -615 571 -859 42 -52 87
-108 101 -125 56 -70 219 -244 345 -366 405 -395 890 -716 1433 -949 78 -33
148 -61 156 -61 7 0 16 -3 19 -7 18 -17 492 -172 581 -189 11 -2 32 -8 46 -13
14 -5 39 -13 55 -17 17 -4 32 -8 35 -9 3 -1 32 -10 65 -20 33 -10 65 -20 70
-21 24 -5 652 -216 770 -258 72 -26 135 -48 140 -50 13 -4 45 -16 70 -26 11
-5 29 -11 40 -13 22 -6 153 -52 260 -92 39 -15 75 -28 80 -29 6 -2 17 -6 25
-9 8 -3 58 -20 110 -37 88 -30 173 -69 327 -151 67 -36 66 -32 48 -119 -2 -8
-4 -21 -4 -27 -1 -10 -240 -13 -1160 -13 -1041 0 -1161 -2 -1175 -16 -9 -8
-16 -20 -16 -27 0 -6 -12 -49 -26 -95 -14 -46 -25 -85 -23 -87 2 -1 65 -24
139 -50 74 -25 164 -58 200 -72 36 -14 70 -26 75 -28 6 -1 24 -7 40 -14 17 -6
89 -34 160 -62 128 -50 153 -60 198 -78 12 -5 72 -28 132 -51 61 -22 118 -45
127 -50 10 -6 25 -10 33 -10 8 0 23 -4 33 -10 29 -17 317 -107 403 -126 10 -2
29 -6 42 -10 12 -3 33 -7 47 -10 14 -3 32 -7 40 -9 8 -2 31 -7 50 -10 19 -3
49 -8 65 -12 17 -3 41 -7 55 -9 14 -2 52 -7 85 -11 129 -17 1320 -8 1650 12
28 1 102 6 165 9 123 7 187 12 290 20 36 3 94 8 130 11 155 12 340 30 435 41
28 4 61 8 75 9 23 3 100 11 175 20 56 7 130 16 155 21 14 2 48 6 75 9 28 4 62
8 78 11 62 10 84 13 127 19 42 6 56 9 127 19 47 8 97 16 126 22 16 3 38 7 50
9 32 4 99 15 127 20 14 3 39 7 55 10 17 3 53 10 80 15 28 5 66 12 85 15 19 3
42 8 50 10 17 5 59 13 110 21 19 3 53 10 75 16 22 5 49 12 60 14 19 4 44 9 95
20 14 3 39 7 55 10 17 3 53 11 80 19 28 8 61 16 75 19 20 4 212 51 450 110 29
8 165 45 220 61 30 9 62 17 70 19 38 10 275 80 360 108 273 88 502 166 555
188 11 4 72 27 135 50 63 23 124 45 135 50 11 5 85 34 165 65 186 73 376 154
565 240 191 87 268 124 495 237 243 121 397 202 485 253 22 13 67 38 100 56
33 17 72 40 87 51 14 10 29 18 33 18 3 0 31 16 61 35 30 19 56 35 58 35 2 0
82 48 177 106 337 205 868 570 1154 792 44 34 85 65 90 69 282 215 758 626
1078 933 84 80 462 460 534 536 249 265 602 672 821 947 56 70 106 133 112
140 31 38 231 301 273 358 9 13 47 65 82 114 36 50 72 99 81 110 173 232 568
831 787 1195 15 25 32 52 37 60 45 70 294 506 378 660 22 41 72 133 111 204
39 72 71 135 71 142 0 7 4 14 8 16 5 2 48 80 97 173 48 94 109 211 135 260 26
50 78 149 115 220 37 72 80 153 95 180 40 73 64 119 65 125 1 3 10 19 20 36
l18 31 41 -20 c23 -11 42 -20 44 -22 1 -1 -92 -283 -206 -627 -115 -344 -212
-637 -216 -651 -6 -25 -3 -27 66 -48 40 -12 79 -22 86 -23 7 -1 25 33 41 79
16 44 77 211 136 370 59 160 108 295 109 300 2 6 8 21 13 35 6 14 18 45 26 70
9 25 35 95 57 155 23 61 55 148 71 195 17 47 35 94 40 105 6 12 11 27 13 35 1
8 9 31 18 51 9 20 19 47 22 60 4 13 14 41 22 62 30 77 33 87 137 372 125 341
170 464 194 530 27 74 29 79 62 164 12 29 21 59 21 66 0 6 -37 22 -82 35 -200
56 -200 56 -253 70 -96 25 -87 23 -145 39 -25 7 -54 15 -66 17 -12 2 -40 10
-63 18 -22 9 -41 13 -41 11 0 -2 -17 3 -37 12 -21 8 -38 14 -38 13 0 -2 -27 5
-60 15 -33 10 -62 19 -65 20 -32 8 -132 39 -155 48 -16 6 -32 12 -35 13 -3 0
-14 4 -25 9 -11 4 -72 28 -135 53 -373 148 -659 372 -843 662 l-34 55 261 104
c143 58 270 109 281 115 11 6 22 10 25 11 3 0 34 12 70 27 58 23 95 38 110 43
3 1 14 5 25 10 11 4 58 23 105 42 94 37 127 51 152 64 10 5 22 9 28 9 6 0 32
9 58 21 26 12 56 25 67 29 29 13 370 149 568 227 92 37 164 70 160 74 -4 4
-28 18 -53 32 -229 124 -241 131 -480 266 -80 46 -149 86 -155 91 -5 4 -30 19
-55 32 -25 14 -110 65 -190 113 -80 49 -154 93 -165 99 -11 7 -47 29 -80 50
-33 21 -114 72 -180 114 -206 130 -659 431 -850 566 -152 108 -462 332 -495
358 -19 15 -91 69 -160 120 -309 228 -1130 889 -1291 1040 -14 13 -39 34 -55
47 -16 12 -58 49 -94 81 -36 31 -108 95 -160 140 -107 93 -179 158 -425 381
-407 369 -761 644 -1230 954 -229 151 -485 311 -600 375 -133 73 -416 213
-475 235 -3 1 -16 6 -30 12 -160 68 -367 139 -533 183 -118 31 -136 36 -192
45 -16 3 -37 8 -45 10 -8 2 -28 7 -45 9 -16 3 -41 8 -55 10 -35 7 -97 16 -150
22 -25 3 -61 7 -80 10 -39 6 -486 14 -492 9z"/>
<path d="M60434 43837 c-34 -45 -175 -233 -314 -417 -139 -184 -382 -506 -540
-715 -158 -209 -375 -497 -483 -640 -511 -675 -727 -963 -727 -968 0 -4 279
-448 439 -699 20 -31 62 -98 93 -148 64 -100 57 -97 158 -70 19 5 53 12 75 15
22 4 65 13 95 20 30 8 71 17 90 20 19 3 42 8 50 10 8 2 26 6 40 9 25 5 154 31
198 40 13 3 31 7 40 10 9 3 33 8 52 11 19 3 42 8 50 10 8 2 31 7 50 10 19 3
43 8 52 11 9 3 27 7 40 9 21 4 90 18 143 29 84 18 224 48 240 52 11 2 34 7 50
10 17 2 46 9 65 14 33 9 56 13 125 25 29 5 96 19 235 51 65 15 89 20 145 30
17 3 50 10 75 15 25 6 56 13 70 15 21 4 44 9 95 20 6 1 21 5 35 8 14 3 36 8
50 11 14 3 39 8 55 11 17 3 50 10 75 15 25 6 54 12 65 15 11 2 43 8 71 14 28
6 64 13 80 16 16 3 45 9 64 14 19 5 49 12 65 14 17 3 41 8 55 11 14 3 36 8 50
11 14 3 32 7 40 9 8 2 29 7 45 10 17 2 41 7 55 10 14 3 57 12 95 20 39 8 104
22 145 31 41 8 86 18 100 21 14 3 30 6 35 8 6 1 29 6 53 10 23 4 42 12 42 16
0 5 -24 46 -53 92 -121 188 -142 222 -152 239 -5 10 -49 80 -97 156 -48 75
-123 193 -166 262 -44 69 -85 124 -93 124 -8 -1 -50 -11 -94 -23 -44 -12 -87
-24 -95 -26 -8 -1 -35 -9 -60 -16 -25 -7 -49 -14 -55 -15 -13 -3 -156 -42
-220 -59 -109 -30 -241 -66 -260 -71 -28 -7 -34 -9 -85 -23 -25 -7 -52 -14
-60 -16 -8 -2 -35 -9 -60 -16 -25 -7 -49 -13 -55 -15 -5 -1 -30 -7 -55 -14
-25 -7 -47 -12 -50 -12 -3 0 -15 -4 -28 -9 -12 -5 -33 -11 -45 -13 -12 -2 -80
-21 -152 -41 -71 -20 -137 -38 -145 -40 -8 -1 -42 -10 -75 -19 -33 -9 -67 -18
-75 -20 -8 -2 -58 -16 -110 -31 -52 -14 -106 -28 -120 -31 -14 -2 -36 -9 -50
-14 -14 -5 -70 -21 -125 -36 -55 -14 -116 -30 -135 -35 -19 -5 -44 -12 -55
-14 -11 -3 -42 -11 -68 -19 -45 -13 -47 -13 -35 2 21 27 399 474 425 502 12
14 93 108 179 210 86 102 175 208 199 235 23 28 136 160 251 295 115 135 281
330 369 433 88 104 162 193 163 198 4 9 -559 909 -568 908 -3 0 -33 -37 -66
-82z"/>
<path d="M6721 39518 c-21 -46 -51 -112 -66 -148 -15 -36 -35 -83 -45 -105
-10 -22 -43 -96 -73 -165 -30 -69 -63 -145 -74 -170 -12 -25 -37 -83 -58 -130
-36 -84 -51 -117 -85 -195 -10 -22 -42 -94 -70 -160 -54 -125 -60 -138 -108
-245 -16 -36 -41 -94 -57 -130 -15 -36 -36 -83 -46 -105 -9 -22 -43 -98 -74
-170 -31 -71 -70 -158 -86 -193 -16 -35 -29 -65 -29 -68 0 -2 -16 -38 -35 -80
-19 -41 -35 -77 -35 -80 0 -2 -15 -37 -33 -76 -93 -203 -98 -225 -56 -231 8
-2 19 -5 24 -9 6 -3 84 -38 175 -78 91 -40 183 -80 205 -90 22 -10 114 -50
205 -90 564 -247 619 -271 685 -300 59 -27 256 -113 405 -177 58 -25 130 -56
160 -70 52 -24 320 -142 420 -185 25 -10 54 -23 65 -28 11 -5 40 -18 65 -29
25 -10 72 -31 105 -46 57 -25 308 -135 405 -176 25 -11 52 -24 61 -29 16 -9
40 42 304 650 40 91 84 191 98 222 23 49 76 170 177 403 47 108 71 162 118
268 17 37 31 70 32 72 1 5 43 104 60 140 25 56 67 152 112 255 27 63 58 133
68 155 96 217 170 388 168 390 -2 1 -32 14 -68 29 -36 15 -85 37 -110 48 -25
11 -54 24 -65 28 -11 5 -51 23 -88 39 -38 17 -70 31 -72 31 -2 0 -34 14 -72
32 -37 18 -70 33 -73 33 -3 0 -27 11 -54 23 -94 43 -87 47 -141 -80 -26 -62
-60 -140 -75 -173 -15 -33 -42 -94 -60 -135 -18 -41 -43 -99 -56 -128 -13 -29
-24 -55 -24 -57 0 -3 -18 -43 -40 -90 -22 -47 -40 -88 -40 -90 0 -5 -13 -36
-74 -168 -20 -44 -36 -81 -36 -83 0 -2 -16 -38 -35 -80 -19 -41 -35 -77 -35
-79 0 -4 -27 -67 -71 -163 -11 -24 -27 -62 -36 -85 -10 -23 -31 -70 -48 -104
-29 -61 -31 -63 -55 -50 -14 7 -142 64 -285 126 -143 63 -263 117 -267 120 -6
5 16 62 76 196 26 58 54 121 86 195 18 41 44 100 57 130 14 30 45 100 68 155
24 55 57 132 75 170 18 39 40 90 50 115 10 25 31 75 48 110 41 90 63 141 108
245 21 50 44 101 50 114 12 23 11 26 -14 37 -38 18 -117 53 -267 119 -71 31
-143 62 -160 70 -16 7 -52 23 -80 34 -27 12 -58 26 -68 32 -11 6 -20 9 -22 7
-5 -6 -67 -143 -69 -153 -2 -5 -17 -40 -34 -78 -18 -37 -32 -69 -32 -72 0 -2
-13 -32 -29 -67 -15 -35 -43 -97 -61 -138 -18 -41 -48 -108 -67 -148 -18 -40
-33 -75 -33 -78 0 -3 -13 -35 -30 -71 -16 -35 -30 -66 -30 -68 0 -3 -11 -28
-24 -57 -13 -29 -33 -73 -44 -98 -11 -25 -30 -67 -43 -95 -13 -27 -23 -52 -24
-55 -1 -3 -9 -22 -18 -42 -9 -21 -24 -55 -33 -75 -37 -89 -68 -153 -74 -153
-8 0 -150 61 -248 106 -41 19 -76 34 -78 34 -3 0 -25 9 -50 20 -24 11 -55 25
-69 30 -28 11 -29 8 29 133 20 43 36 80 36 82 0 3 109 253 140 320 41 92 70
157 70 160 0 2 13 32 29 67 16 35 43 97 61 138 18 41 45 103 61 138 16 35 29
65 29 67 0 3 13 33 29 67 15 35 52 117 80 183 29 66 61 139 72 162 10 24 19
49 19 56 0 8 -39 31 -87 51 -94 41 -405 177 -463 203 -19 9 -47 22 -63 30
l-28 14 -38 -83z"/>
<path d="M63007 39474 c-1 -1 -45 -5 -97 -8 -52 -4 -115 -8 -140 -11 -48 -4
-199 -15 -265 -20 -22 -2 -80 -6 -130 -10 -49 -4 -106 -9 -125 -10 -87 -6
-210 -16 -265 -21 -66 -5 -144 -11 -245 -19 -36 -3 -92 -7 -125 -9 -33 -3 -96
-8 -140 -11 -44 -3 -100 -8 -125 -10 -42 -4 -121 -10 -265 -21 -33 -2 -85 -6
-115 -9 -30 -3 -89 -7 -130 -10 -41 -3 -97 -7 -125 -10 -27 -2 -90 -7 -140
-10 -49 -4 -106 -8 -125 -10 -19 -2 -78 -7 -130 -10 -52 -4 -112 -8 -134 -10
-21 -3 -73 -7 -115 -10 -42 -3 -98 -7 -126 -10 -27 -2 -90 -7 -140 -11 -49 -3
-103 -8 -120 -9 -16 -2 -49 -3 -73 -4 -40 -1 -43 -3 -36 -23 3 -13 14 -31 23
-42 9 -10 15 -21 15 -25 -2 -9 9 -35 61 -146 62 -130 119 -252 162 -345 115
-245 136 -289 156 -330 13 -25 27 -44 32 -44 6 1 30 5 55 8 25 3 54 8 65 10
11 2 43 7 70 10 28 4 75 11 105 16 104 18 118 20 161 25 24 3 56 8 70 10 23 5
28 0 54 -57 16 -35 51 -110 78 -168 27 -58 63 -134 79 -170 17 -36 49 -103 70
-150 46 -98 98 -209 138 -295 15 -33 42 -89 59 -124 17 -36 31 -70 31 -76 0
-9 -338 -317 -406 -371 -12 -10 -7 -28 35 -115 26 -57 61 -131 76 -164 59
-128 97 -210 212 -455 22 -47 57 -121 78 -165 20 -44 38 -81 40 -83 2 -2 259
257 535 540 47 47 227 231 400 408 173 177 369 378 435 446 66 68 277 284 470
481 192 197 406 416 475 487 69 70 133 136 143 146 20 20 23 12 -81 230 -27
58 -61 130 -75 160 -14 30 -47 102 -75 160 -27 58 -74 159 -105 225 -30 66
-69 150 -87 187 l-33 68 -44 -3 c-25 -1 -45 -3 -46 -3z m-482 -872 c-5 -5
-109 -98 -230 -207 -121 -109 -240 -217 -265 -241 -25 -23 -92 -84 -150 -135
-58 -51 -107 -96 -110 -99 -29 -30 -133 -120 -139 -120 -4 0 -18 24 -31 53
-13 28 -48 104 -78 167 -137 292 -192 412 -192 419 0 4 6 8 13 8 6 0 35 3 62
7 28 4 61 9 75 11 14 2 39 6 55 9 17 2 54 8 84 11 30 4 63 9 75 11 12 2 42 6
67 9 25 3 55 7 66 9 11 3 44 7 73 11 29 4 61 8 70 10 9 2 41 6 70 10 29 4 62
9 74 11 12 2 40 6 63 9 40 5 64 8 151 20 20 3 55 8 77 11 21 2 40 6 42 7 1 2
22 4 45 6 26 1 39 -1 33 -7z"/>
<path d="M64235 36701 c-27 -9 -81 -28 -120 -40 -99 -32 -100 -32 -100 -31 0
0 -34 -11 -75 -25 -41 -15 -83 -28 -93 -30 -10 -2 -70 -22 -135 -43 -128 -44
-471 -154 -487 -158 -5 -1 -46 -14 -90 -29 -44 -14 -87 -28 -95 -30 -8 -2 -82
-26 -165 -53 -250 -82 -622 -202 -628 -202 -3 0 -18 -5 -34 -12 -15 -6 -30
-12 -33 -13 -24 -6 -489 -155 -625 -199 -71 -24 -189 -62 -262 -85 l-131 -42
8 -27 c5 -15 22 -70 40 -122 17 -52 33 -103 35 -112 2 -9 17 -56 33 -105 17
-48 62 -189 102 -313 81 -254 90 -281 101 -294 6 -7 269 73 544 166 33 11 65
21 70 22 6 1 24 7 40 13 17 6 55 19 85 28 30 9 62 19 70 22 8 3 20 7 27 9 11
2 110 34 336 109 l98 33 11 -27 c52 -133 56 -242 10 -342 -39 -87 -86 -140
-513 -584 -107 -110 -256 -267 -367 -383 -86 -91 -92 -106 -63 -161 7 -11 9
-21 6 -21 -2 0 1 -17 9 -37 15 -42 27 -75 28 -83 1 -3 14 -43 30 -90 16 -47
31 -92 33 -100 3 -14 49 -158 140 -435 23 -71 51 -157 60 -190 10 -33 21 -63
25 -68 5 -6 372 355 723 713 99 101 151 170 240 315 78 129 100 208 101 363 0
28 1 52 2 52 0 0 21 -31 46 -68 106 -159 217 -265 358 -341 269 -145 561 -141
885 11 229 107 419 350 453 578 9 60 9 273 -1 335 -6 46 -15 96 -21 120 -2 6
-6 28 -11 50 -13 71 -60 240 -92 335 -14 41 -26 82 -28 90 -2 8 -24 78 -50
155 -25 77 -48 147 -50 155 -2 8 -24 78 -50 155 -25 77 -48 147 -50 155 -2 8
-24 78 -50 155 -26 77 -48 147 -50 155 -3 17 -89 280 -142 440 -19 58 -36 110
-38 115 -17 73 -20 75 -100 46z m-205 -1296 c23 -72 57 -175 75 -230 18 -55
36 -113 40 -130 5 -16 9 -34 11 -40 2 -5 8 -41 15 -80 29 -176 -23 -285 -166
-352 -82 -37 -170 -42 -247 -13 -58 22 -126 79 -151 128 -7 15 -34 65 -60 112
-40 75 -95 223 -166 455 -20 66 -20 71 -4 82 9 7 22 13 27 14 22 1 44 8 176
52 74 25 141 46 148 48 7 2 68 22 135 45 67 22 123 40 124 40 1 -1 20 -60 43
-131z"/>
<path d="M5290 36143 c0 -10 -11 -52 -24 -93 -29 -90 -77 -248 -81 -270 -2 -8
-13 -46 -25 -85 -12 -38 -22 -74 -24 -80 -1 -5 -12 -44 -25 -85 -12 -41 -34
-113 -48 -160 -13 -47 -29 -95 -34 -107 -7 -18 -4 -25 14 -34 12 -7 22 -11 22
-10 0 1 7 0 15 -2 8 -3 87 -26 175 -52 88 -26 169 -49 180 -53 11 -3 25 -7 30
-9 41 -11 121 -35 180 -53 39 -12 77 -23 85 -25 8 -2 69 -20 135 -40 66 -20
127 -38 135 -40 8 -2 69 -20 135 -41 66 -20 127 -37 135 -39 8 -2 92 -27 185
-55 94 -29 175 -53 180 -54 32 -7 125 -37 125 -40 0 -2 -53 -20 -117 -41 -218
-69 -368 -117 -443 -142 -41 -13 -82 -26 -90 -28 -16 -3 -276 -86 -350 -111
-25 -9 -52 -17 -60 -19 -8 -2 -78 -25 -155 -50 -77 -25 -147 -48 -155 -50 -8
-2 -78 -24 -155 -49 -186 -60 -327 -105 -457 -146 l-106 -33 -17 -56 c-9 -31
-21 -67 -25 -81 -5 -14 -30 -96 -55 -183 -25 -88 -47 -162 -49 -166 -3 -4 -7
-18 -10 -32 -3 -13 -19 -71 -37 -129 -17 -58 -33 -112 -34 -120 -2 -8 -4 -16
-5 -17 -2 -2 -3 -6 -4 -10 -1 -5 -10 -34 -20 -67 -9 -32 -16 -59 -14 -60 2 -2
28 -10 58 -19 30 -9 109 -33 175 -53 66 -20 131 -38 144 -40 14 -3 28 -7 32
-10 8 -4 202 -63 229 -69 8 -2 53 -15 100 -29 47 -15 123 -38 170 -51 47 -14
99 -29 115 -35 165 -50 414 -123 434 -127 13 -2 32 -8 41 -13 9 -5 28 -11 41
-14 13 -2 55 -14 93 -26 38 -12 76 -23 85 -26 9 -2 48 -13 86 -25 39 -11 84
-24 100 -29 17 -5 62 -18 100 -30 39 -12 81 -23 94 -26 14 -3 28 -7 32 -10 7
-4 143 -45 244 -74 56 -16 200 -59 355 -105 85 -26 169 -51 185 -55 88 -24
236 -69 244 -74 5 -4 13 -1 16 5 6 8 49 150 70 229 3 8 14 47 26 85 11 39 24
84 29 100 5 17 40 136 79 265 38 129 66 238 63 242 -4 3 -32 13 -62 21 -48 13
-495 145 -649 192 -30 9 -62 18 -70 20 -9 2 -36 10 -61 18 -74 24 -187 57
-206 62 -11 2 -38 10 -61 19 -24 8 -43 13 -43 11 0 -2 -24 5 -52 14 -29 10
-158 49 -286 87 l-232 69 52 18 c29 10 60 20 68 22 16 4 265 83 290 92 8 3 20
7 25 8 11 3 238 76 325 105 63 21 381 123 393 126 4 1 8 2 10 4 1 1 9 3 17 5
17 3 266 83 290 92 8 3 20 7 25 8 6 1 33 10 60 20 28 9 55 18 60 19 41 10 72
20 80 25 6 3 15 6 21 7 6 1 57 18 115 37 57 19 137 45 177 57 40 12 75 27 77
33 2 7 13 46 25 87 12 41 28 95 36 120 53 178 148 501 159 540 2 8 13 46 24
85 12 38 21 75 21 82 0 6 -19 16 -42 21 -24 6 -74 20 -113 32 -38 11 -77 23
-85 25 -8 1 -44 12 -80 23 -113 36 -234 72 -255 77 -11 2 -58 16 -105 30 -47
15 -94 28 -105 30 -11 3 -31 9 -45 14 -14 5 -59 19 -100 31 -41 12 -86 25
-100 29 -14 5 -50 15 -80 24 -30 9 -85 25 -121 37 -36 11 -74 22 -85 25 -10 2
-102 29 -204 60 -102 30 -194 57 -205 60 -19 4 -465 138 -575 172 -30 9 -59
18 -65 19 -5 2 -26 8 -45 13 -19 5 -82 24 -140 41 -91 28 -181 54 -215 64 -5
1 -30 9 -55 16 -25 7 -49 15 -55 16 -5 2 -17 5 -25 6 -8 2 -19 6 -25 10 -5 3
-26 9 -45 14 -19 4 -37 8 -40 9 -3 1 -30 9 -60 19 -89 28 -110 30 -110 9z"/>
<path d="M65410 32978 c-19 -4 -48 -10 -65 -12 -16 -3 -41 -8 -55 -11 -14 -3
-36 -7 -50 -10 -14 -3 -35 -7 -46 -9 -12 -2 -37 -7 -55 -10 -19 -3 -45 -8 -59
-11 -26 -5 -51 -10 -110 -20 -19 -3 -53 -10 -75 -15 -46 -10 -101 -20 -130
-24 -11 -2 -45 -8 -75 -15 -57 -12 -65 -13 -140 -27 -25 -4 -47 -8 -50 -9 -3
-1 -25 -5 -50 -9 -25 -5 -54 -10 -65 -13 -11 -2 -29 -6 -40 -7 -18 -3 -90 -17
-165 -31 -14 -3 -36 -7 -50 -10 -14 -3 -38 -8 -55 -10 -16 -3 -41 -7 -55 -10
-14 -3 -36 -7 -50 -10 -14 -3 -36 -7 -50 -10 -14 -3 -38 -7 -55 -10 -16 -3
-52 -10 -80 -15 -27 -6 -61 -12 -75 -15 -14 -3 -36 -7 -50 -10 -14 -2 -38 -7
-55 -10 -35 -6 -68 -12 -108 -21 -16 -3 -38 -7 -50 -9 -20 -3 -36 -5 -107 -20
-14 -3 -50 -9 -80 -15 -30 -6 -66 -12 -80 -15 -14 -3 -37 -7 -52 -10 -16 -3
-40 -7 -55 -10 -16 -3 -39 -7 -53 -10 -14 -3 -38 -8 -55 -10 -16 -3 -37 -8
-45 -10 -8 -3 -31 -7 -50 -9 -19 -3 -55 -9 -80 -15 -49 -11 -84 -17 -145 -26
-22 -4 -56 -10 -75 -15 -19 -5 -51 -11 -70 -14 -19 -3 -46 -8 -60 -11 -14 -2
-49 -9 -77 -15 -181 -35 -164 -28 -158 -63 10 -55 15 -81 20 -107 3 -14 8 -38
10 -55 3 -16 8 -37 10 -45 2 -8 6 -31 9 -50 3 -19 8 -46 11 -60 8 -38 16 -82
20 -110 3 -14 7 -36 10 -50 3 -14 7 -36 10 -50 3 -14 7 -36 10 -50 2 -13 7
-42 10 -65 4 -22 10 -56 15 -75 5 -19 11 -51 14 -70 3 -19 8 -46 11 -60 3 -14
8 -38 11 -55 3 -16 7 -37 9 -45 2 -8 4 -20 4 -26 1 -8 12 -9 39 -3 20 4 53 11
72 14 19 3 53 10 75 15 22 5 56 11 75 14 44 7 87 15 120 21 14 3 36 7 50 10
14 3 48 9 75 15 75 15 95 19 140 25 22 4 56 10 75 15 19 5 55 12 80 15 24 4
47 8 50 10 3 2 23 6 45 9 22 4 47 8 55 11 8 2 32 6 53 9 21 4 71 13 110 21
173 35 209 37 212 15 2 -8 6 -35 11 -60 16 -97 7 -175 -29 -253 -37 -78 -95
-137 -318 -318 -111 -90 -328 -267 -483 -392 -155 -126 -287 -235 -294 -241
-10 -10 -10 -23 -3 -57 5 -24 12 -60 15 -79 10 -61 16 -94 22 -120 3 -14 8
-36 10 -50 8 -43 25 -135 28 -145 2 -5 6 -32 10 -60 4 -27 12 -66 16 -85 5
-19 11 -51 14 -70 3 -19 8 -46 11 -60 3 -14 9 -50 15 -80 11 -60 17 -92 25
-130 2 -14 7 -38 10 -55 12 -70 26 -138 32 -147 3 -7 57 25 73 43 6 7 251 198
324 254 76 57 487 381 511 403 41 36 154 169 208 244 51 72 81 136 93 204 3
15 7 30 9 34 2 4 7 29 11 56 3 27 7 50 9 52 1 1 17 -28 35 -65 148 -305 414
-508 710 -541 197 -21 412 18 598 109 91 44 116 62 202 147 53 53 110 120 127
147 33 56 81 168 88 203 2 12 6 26 9 31 25 39 25 428 0 555 -2 11 -6 38 -9 61
-11 69 -16 107 -21 129 -2 11 -7 37 -10 56 -4 31 -12 73 -20 105 -1 6 -5 27
-9 49 -4 21 -9 48 -11 60 -2 11 -7 35 -9 51 -3 17 -8 37 -10 45 -2 8 -6 29 -9
45 -9 56 -15 89 -31 165 -2 14 -7 41 -10 60 -3 19 -8 42 -10 50 -4 16 -11 51
-21 109 -3 18 -8 43 -10 55 -2 11 -8 46 -14 76 -6 30 -12 66 -15 80 -3 14 -7
36 -10 50 -3 14 -7 36 -10 50 -8 38 -14 71 -20 115 -4 22 -10 56 -15 75 -5 19
-12 52 -16 74 -3 21 -8 48 -10 60 -2 11 -6 35 -9 51 -3 17 -8 41 -10 55 -7 33
-13 63 -25 128 -13 74 -18 80 -60 70z m-415 -1189 c3 -19 12 -65 20 -104 8
-38 17 -86 20 -105 3 -19 8 -42 10 -50 3 -8 7 -31 9 -50 3 -20 7 -47 10 -60
15 -66 18 -93 22 -196 5 -132 -9 -181 -67 -248 -105 -120 -297 -138 -429 -42
-49 36 -94 115 -145 256 -29 81 -29 81 -49 185 -5 31 -19 99 -21 105 -1 3 -4
25 -9 50 -4 25 -11 65 -16 90 -20 96 -20 100 3 104 12 3 45 10 72 16 58 12 79
16 129 24 19 3 56 10 81 16 25 6 62 13 83 16 20 3 44 7 52 9 8 3 33 7 55 10
22 4 47 8 55 10 8 2 31 7 50 10 19 3 37 8 39 11 7 7 20 -19 26 -57z"/>
<path d="M4169 32109 c0 -13 -2 -31 -4 -39 -1 -8 -6 -35 -10 -60 -12 -85 -17
-113 -21 -134 -2 -11 -6 -41 -9 -66 -6 -43 -9 -62 -20 -120 -3 -14 -7 -43 -10
-65 -3 -22 -7 -51 -10 -65 -3 -13 -7 -42 -10 -65 -4 -22 -8 -53 -11 -70 -3
-16 -7 -41 -9 -55 -4 -31 -15 -97 -21 -130 -11 -66 -14 -120 -7 -121 4 0 17
-2 28 -5 11 -2 38 -6 60 -9 40 -5 72 -10 130 -20 28 -5 53 -9 128 -20 17 -2
43 -7 56 -9 12 -3 42 -8 65 -10 22 -3 52 -8 66 -11 13 -2 42 -7 65 -10 22 -3
65 -10 95 -15 30 -5 72 -11 93 -14 20 -4 54 -8 75 -12 20 -3 62 -9 92 -14 30
-5 69 -12 85 -14 17 -3 62 -10 100 -16 39 -5 79 -12 90 -14 11 -2 43 -7 70
-10 28 -4 57 -9 65 -11 8 -2 35 -6 60 -9 25 -3 54 -8 65 -10 11 -2 40 -7 65
-10 25 -3 54 -8 65 -10 20 -4 161 -26 200 -31 11 -2 34 -6 50 -8 33 -6 103
-17 138 -22 12 -2 31 -6 42 -9 11 -3 36 -9 55 -14 84 -21 207 -98 257 -160 57
-72 95 -155 109 -242 7 -49 8 -151 0 -196 -3 -16 -8 -44 -11 -62 -9 -53 -53
-163 -86 -214 -17 -27 -54 -69 -82 -94 -130 -116 -290 -150 -527 -110 -14 3
-43 7 -65 11 -22 3 -47 7 -55 10 -8 2 -35 6 -60 9 -25 3 -56 8 -70 10 -14 3
-43 7 -65 11 -60 9 -166 25 -200 31 -16 3 -45 7 -64 10 -19 2 -47 6 -63 9 -48
8 -92 16 -123 21 -16 2 -41 6 -55 9 -14 3 -45 7 -69 10 -23 3 -56 7 -72 10
-46 8 -81 13 -124 20 -23 3 -52 8 -65 10 -14 3 -43 7 -65 10 -22 3 -51 7 -65
10 -23 5 -45 8 -129 20 -18 2 -40 7 -50 9 -9 3 -38 8 -66 11 -27 3 -59 7 -70
9 -43 8 -111 19 -135 21 -14 2 -41 6 -60 10 -19 3 -50 8 -69 11 -19 2 -47 6
-62 9 -25 5 -27 2 -34 -41 -3 -25 -8 -53 -10 -62 -1 -10 -6 -37 -9 -62 -3 -25
-8 -56 -11 -70 -2 -13 -7 -42 -10 -65 -9 -63 -15 -98 -20 -125 -3 -14 -7 -43
-10 -65 -3 -22 -7 -51 -10 -65 -3 -14 -7 -43 -10 -65 -3 -22 -7 -51 -10 -65
-10 -51 -26 -159 -41 -264 -3 -22 -6 -44 -7 -49 -1 -5 5 -11 13 -12 46 -9 126
-22 185 -30 40 -6 101 -15 125 -20 14 -3 47 -7 75 -11 27 -3 52 -7 55 -9 3 -2
28 -6 55 -9 28 -4 61 -8 75 -11 32 -6 98 -16 135 -21 17 -2 41 -6 55 -8 13 -3
42 -8 65 -11 22 -4 52 -8 68 -11 15 -2 39 -6 55 -8 15 -3 45 -7 67 -11 23 -3
52 -8 65 -10 14 -3 41 -7 60 -10 42 -5 104 -15 134 -21 11 -2 41 -7 66 -10 25
-3 54 -8 65 -10 11 -2 40 -7 65 -9 25 -3 52 -8 60 -10 14 -4 75 -13 125 -20
11 -1 34 -5 50 -8 30 -6 56 -10 150 -23 28 -3 52 -8 56 -9 13 -8 164 -19 264
-19 107 1 250 9 310 19 42 7 98 18 110 21 6 2 21 5 34 8 80 18 223 87 331 161
285 194 423 413 531 845 27 105 43 178 64 290 3 14 7 36 10 50 42 213 52 562
19 735 -17 89 -28 132 -36 143 -6 6 -8 12 -5 12 8 0 -36 104 -76 180 -111 212
-285 390 -492 505 -27 15 -54 30 -60 33 -5 4 -12 7 -15 8 -5 1 -65 26 -105 44
-56 25 -213 71 -290 84 -28 5 -40 8 -105 21 -14 2 -47 7 -75 11 -55 7 -76 10
-120 18 -16 3 -52 8 -80 12 -27 3 -52 7 -55 9 -3 2 -29 6 -59 10 -30 4 -63 9
-75 11 -11 2 -38 6 -61 9 -22 3 -65 10 -95 15 -49 8 -106 17 -165 25 -11 2
-33 6 -50 9 -16 2 -48 7 -70 11 -23 3 -52 7 -65 10 -26 5 -77 13 -131 20 -19
3 -43 7 -55 9 -12 2 -45 7 -74 11 -52 7 -69 9 -120 20 -14 3 -43 7 -65 10 -22
2 -49 6 -60 9 -11 2 -41 6 -66 10 -25 4 -57 9 -70 11 -13 2 -41 6 -61 9 -54 8
-108 17 -127 21 -9 2 -42 6 -74 10 -55 7 -57 7 -58 -16z"/>
<path d="M65967 29173 c-1 0 -38 -4 -82 -8 -44 -3 -91 -8 -105 -10 -14 -2 -59
-6 -100 -10 -41 -3 -91 -8 -110 -10 -37 -4 -146 -14 -220 -20 -25 -2 -67 -6
-95 -9 -27 -3 -79 -8 -115 -11 -36 -4 -83 -8 -105 -11 -22 -2 -69 -6 -103 -9
-35 -3 -83 -7 -105 -10 -75 -8 -161 -16 -212 -20 -27 -2 -72 -6 -100 -9 -27
-3 -77 -8 -110 -11 -33 -3 -80 -7 -105 -10 -25 -3 -74 -7 -110 -10 -65 -5
-126 -11 -210 -20 -25 -3 -70 -7 -100 -10 -80 -6 -169 -14 -220 -20 -25 -3
-72 -7 -105 -10 -33 -3 -78 -7 -100 -9 -35 -4 -116 -11 -220 -21 -16 -1 -66
-6 -110 -9 -44 -4 -91 -9 -105 -11 -33 -5 -178 -18 -208 -19 -23 0 -23 -1 -17
-80 3 -45 8 -97 10 -116 2 -19 6 -69 10 -110 4 -41 8 -91 10 -110 2 -19 6 -64
9 -100 3 -36 8 -85 11 -110 6 -53 12 -118 21 -215 3 -38 8 -81 9 -95 2 -14 3
-40 4 -58 l1 -34 78 7 c42 3 93 8 112 10 19 2 69 6 110 10 41 4 89 8 105 10
17 1 64 6 105 10 41 3 93 8 115 11 22 2 67 6 100 9 33 3 76 7 95 9 19 2 69 7
110 10 41 4 89 8 105 11 17 2 66 6 110 10 44 4 94 8 110 10 33 3 114 11 313
30 26 2 74 7 107 10 33 3 80 7 105 10 115 10 231 21 320 30 59 6 118 11 220
20 36 3 81 7 100 10 19 2 69 7 110 10 41 3 89 8 105 10 17 2 66 7 110 10 44 4
94 9 110 11 17 1 62 6 100 9 39 3 84 8 101 10 17 2 66 7 108 10 43 4 85 9 95
10 9 2 22 4 29 4 14 1 13 12 -4 186 -2 22 -6 67 -9 100 -3 33 -7 80 -10 105
-2 25 -7 72 -10 105 -3 33 -7 78 -9 100 -6 59 -18 186 -21 220 -1 17 -6 64
-10 105 -4 41 -8 81 -8 88 0 9 -17 12 -59 10 -33 -2 -60 -4 -61 -5z"/>
<path d="M66296 29018 c7 -66 8 -75 19 -203 4 -44 8 -89 10 -100 1 -11 3 -32
4 -46 1 -21 38 -60 184 -190 100 -89 187 -167 192 -173 6 -6 28 -26 50 -45 22
-18 60 -52 85 -75 146 -134 228 -206 234 -206 3 0 4 15 1 33 -2 17 -7 59 -9
92 -13 144 -16 182 -21 220 -2 22 -7 72 -11 110 -3 39 -7 84 -9 100 -15 156
-18 193 -18 212 -1 22 0 22 -337 170 -30 13 -68 31 -85 38 -149 69 -211 96
-231 101 -13 4 -27 10 -30 15 -3 5 -12 9 -20 9 -12 0 -13 -12 -8 -62z"/>
<path d="M3619 28100 c0 -25 -2 -81 -4 -125 -1 -44 -6 -163 -9 -265 -4 -102
-9 -234 -11 -295 -3 -60 -7 -180 -10 -265 -3 -85 -7 -211 -10 -280 -2 -69 -7
-199 -10 -290 -3 -91 -8 -217 -10 -280 -4 -105 -9 -249 -20 -562 -4 -106 -2
-118 13 -119 9 -1 46 -2 82 -4 36 -1 160 -5 275 -10 116 -4 246 -9 290 -10 81
-3 357 -13 560 -20 129 -5 416 -15 565 -20 166 -5 444 -15 575 -20 480 -18
674 -25 833 -30 l112 -3 1 36 c1 20 2 71 4 112 7 191 16 439 21 585 3 88 7
188 8 223 2 38 -1 65 -8 69 -6 4 -42 8 -81 9 -38 1 -164 5 -280 9 -115 4 -244
8 -285 10 -170 6 -489 18 -550 20 -36 2 -84 4 -108 4 -36 1 -43 4 -38 19 3 9
8 98 11 197 3 99 8 241 10 315 3 74 7 189 10 255 2 66 7 204 10 308 l7 187
-49 1 c-26 1 -77 2 -113 4 -36 1 -162 5 -280 9 -118 4 -218 10 -222 12 -4 3
-8 -12 -9 -33 -1 -21 -2 -67 -4 -103 -1 -36 -6 -164 -10 -285 -10 -286 -11
-311 -20 -565 -4 -118 -8 -231 -8 -250 -1 -43 -6 -47 -65 -44 -26 1 -144 5
-262 9 -118 3 -219 7 -225 8 -19 3 -22 19 -19 86 1 36 5 145 8 241 6 173 13
376 21 580 2 58 7 191 10 295 4 105 8 208 9 230 5 65 -1 70 -74 71 -36 1 -162
5 -280 9 -118 4 -248 9 -287 9 l-73 2 -1 -46z"/>
<path d="M62960 27005 l0 -523 48 -15 c26 -9 61 -19 77 -23 41 -10 45 -11 48
-14 1 -1 9 -3 17 -5 8 -2 60 -17 115 -34 55 -16 132 -39 170 -50 l70 -20 -1
-573 c-1 -315 -2 -576 -3 -580 -1 -6 -28 -17 -56 -24 -5 -1 -48 -14 -95 -29
-47 -14 -92 -28 -100 -30 -8 -3 -46 -14 -85 -25 -38 -11 -79 -23 -89 -25 -11
-2 -41 -12 -69 -21 l-49 -16 3 -534 c3 -353 7 -534 14 -534 10 0 103 33 140
50 11 5 94 36 185 70 91 33 174 65 185 70 11 5 126 48 255 96 129 47 249 92
265 99 17 7 53 20 80 30 28 10 64 24 80 31 17 7 48 20 70 27 47 17 108 40 480
180 154 58 294 111 310 118 17 7 35 13 40 14 13 4 144 53 170 64 11 5 43 17
70 26 28 10 64 23 80 30 17 7 46 18 65 25 19 7 49 18 65 25 17 7 75 29 130 49
55 21 134 51 175 66 41 16 122 46 180 68 58 22 143 54 190 71 l85 32 -1 427
c-1 235 -2 488 -3 562 l-1 136 -62 21 c-35 12 -92 33 -128 46 -101 37 -931
349 -1505 564 -286 108 -554 208 -595 223 -114 41 -480 179 -520 195 -19 8
-53 21 -75 28 -22 8 -114 42 -205 77 -91 34 -177 66 -192 70 l-28 9 0 -524z
m1365 -935 c22 -7 49 -16 60 -21 11 -4 34 -11 50 -15 17 -4 32 -8 35 -9 52
-16 97 -29 105 -31 6 -1 29 -9 53 -18 23 -8 46 -15 50 -16 7 0 51 -13 167 -49
33 -11 98 -31 145 -44 47 -14 144 -44 215 -66 72 -22 143 -43 158 -47 39 -9
25 -18 -63 -44 -41 -12 -102 -30 -135 -42 -33 -11 -64 -21 -70 -22 -5 -1 -44
-12 -85 -25 -257 -78 -339 -104 -375 -116 -22 -7 -80 -26 -130 -40 -49 -15
-124 -38 -165 -50 -41 -13 -84 -26 -95 -29 -20 -6 -20 -1 -20 353 l0 358 30
-7 c16 -4 48 -13 70 -20z"/>
<path d="M8405 16449 c-102 -10 -144 -18 -168 -31 -12 -6 -23 -10 -25 -9 -6 5
-109 -60 -140 -89 -95 -89 -142 -247 -146 -500 l-2 -75 -117 -3 -117 -3 0
-249 0 -249 117 -3 118 -3 1 -630 c1 -346 2 -632 3 -635 0 -3 142 -5 313 -5
l313 0 0 635 0 635 150 5 150 5 0 248 0 247 -146 0 c-108 0 -148 3 -151 13
-11 27 4 142 22 183 28 59 65 78 160 78 41 0 99 -3 128 -8 40 -6 52 -4 53 6 0
7 2 20 4 28 1 8 6 35 9 60 4 25 9 52 11 60 2 8 7 33 10 55 3 23 7 52 10 65 5
23 16 100 17 110 1 18 -4 26 -19 26 -16 1 -51 5 -168 19 -35 5 -174 14 -260
19 -33 1 -91 -1 -130 -5z"/>
<path d="M12308 16455 c-2 -1 -43 -5 -93 -9 -85 -6 -109 -9 -162 -21 -13 -3
-31 -7 -42 -9 -106 -24 -216 -84 -305 -167 -76 -71 -123 -140 -163 -240 -29
-71 -27 -64 -56 -199 -30 -137 -29 -144 8 -146 38 -2 166 -13 225 -19 89 -9
301 -26 335 -27 37 -1 44 2 43 20 -1 20 5 49 22 112 34 127 109 207 210 226
209 39 366 -142 306 -350 -34 -115 -135 -234 -356 -416 -341 -282 -534 -473
-647 -640 -33 -49 -102 -178 -119 -225 -6 -17 -18 -46 -25 -65 -8 -19 -14 -37
-15 -40 0 -3 -6 -25 -13 -50 -7 -25 -15 -53 -17 -62 -2 -10 -6 -28 -9 -40 -3
-13 -8 -46 -11 -73 l-5 -50 933 -1 c513 0 935 3 938 7 4 6 5 510 1 544 -1 7
-166 10 -480 10 l-479 0 46 50 c56 60 160 147 342 288 169 131 281 235 365
340 64 80 149 235 159 289 2 15 7 32 11 38 19 30 27 298 11 375 -23 112 -118
281 -197 348 -140 121 -275 171 -509 192 -77 7 -248 14 -252 10z"/>
<path d="M14588 16455 c-2 -1 -43 -5 -93 -9 -260 -17 -444 -99 -571 -253 -92
-112 -173 -336 -178 -488 -1 -38 1 -40 29 -41 32 -1 146 -11 230 -19 28 -3 75
-7 105 -10 86 -6 192 -16 226 -20 31 -3 32 -2 39 43 22 149 80 251 167 294
118 59 246 31 327 -70 81 -103 74 -242 -20 -382 -42 -63 -186 -205 -304 -300
-263 -211 -477 -417 -587 -564 -145 -194 -251 -458 -262 -651 -1 -20 5 -20
937 -20 515 0 938 2 938 5 1 3 2 127 3 277 1 235 -1 272 -14 275 -8 2 -225 4
-482 3 -258 0 -468 3 -468 6 0 16 181 174 331 290 287 221 426 363 512 519 75
136 101 239 101 400 0 208 -53 343 -191 493 -88 95 -225 165 -380 193 -13 2
-35 6 -50 9 -60 11 -337 27 -345 20z"/>
<path d="M17016 16360 c-79 -102 -819 -1055 -839 -1080 -7 -8 -61 -77 -120
-154 l-107 -138 0 -282 0 -282 558 1 c306 1 563 -1 570 -3 9 -3 12 -58 12
-231 l0 -227 273 1 272 0 5 230 5 230 133 0 c74 0 137 2 141 5 11 8 8 520 -4
521 -5 1 -68 2 -140 3 l-130 1 -5 750 -5 750 -273 0 -273 0 -73 -95z m72
-1217 l-3 -188 -292 0 c-191 0 -289 3 -285 10 5 9 193 250 229 295 7 8 88 111
180 229 l168 215 3 -187 c1 -103 1 -271 0 -374z"/>
<path d="M19354 16435 c-12 -11 -226 -283 -475 -605 -249 -322 -498 -643 -553
-713 l-101 -129 0 -275 c0 -151 2 -278 5 -282 3 -4 259 -7 570 -7 l565 1 1
-220 c1 -121 2 -225 3 -230 1 -12 533 -15 541 -3 3 4 5 104 5 223 0 119 2 219
5 223 3 4 66 7 140 7 l135 0 3 265 2 266 -140 -1 c-77 0 -141 2 -141 5 -1 3
-3 338 -4 745 -1 407 -3 742 -4 745 0 3 -121 5 -268 5 -254 0 -268 -1 -289
-20z m11 -1102 c1 -203 -3 -370 -6 -373 -12 -8 -567 -5 -575 3 -4 4 -1 13 8
20 8 6 70 84 138 172 68 88 131 168 139 177 9 9 77 95 151 192 74 96 137 175
140 176 3 0 5 -165 5 -367z"/>
<path d="M22648 16455 c-2 -1 -41 -5 -88 -8 -47 -4 -96 -9 -110 -12 -14 -3
-41 -8 -60 -11 -19 -3 -44 -11 -55 -17 -11 -6 -22 -10 -25 -9 -20 7 -128 -45
-205 -98 -57 -39 -146 -137 -188 -207 -40 -65 -95 -198 -102 -247 l-6 -32 188
-37 c179 -36 205 -41 263 -52 14 -3 36 -7 50 -10 80 -17 99 -17 98 2 0 10 2
30 5 44 35 171 117 258 250 265 69 3 109 -9 160 -49 57 -44 79 -96 80 -186 1
-60 -4 -85 -21 -118 -31 -60 -79 -111 -125 -135 -52 -26 -79 -32 -158 -31
l-66 1 -3 -52 c-1 -28 -4 -69 -5 -91 -1 -22 -6 -87 -9 -145 -4 -58 -9 -126
-10 -152 l-3 -46 46 13 c205 61 344 16 422 -136 11 -22 18 -39 15 -39 -2 0 2
-19 8 -42 17 -57 13 -179 -7 -248 -49 -167 -190 -254 -354 -216 -61 13 -130
71 -163 135 -20 41 -57 151 -64 191 -2 14 -8 24 -12 23 -14 -2 -85 -12 -124
-17 -19 -3 -48 -7 -65 -10 -16 -3 -50 -7 -75 -10 -25 -3 -56 -8 -70 -11 -14
-2 -45 -6 -70 -9 -25 -3 -54 -8 -66 -10 -27 -5 -125 -19 -142 -19 -7 0 -11 -6
-8 -13 3 -7 10 -32 16 -56 7 -24 17 -49 23 -57 7 -8 11 -17 11 -20 -4 -20 37
-106 92 -191 90 -141 223 -246 380 -299 69 -24 107 -31 239 -49 68 -9 341 -8
395 2 201 36 289 70 405 157 115 86 201 207 258 365 36 100 41 133 41 279 1
129 -1 152 -23 230 -12 47 -71 147 -109 189 -50 53 -122 104 -174 124 -29 11
-66 25 -82 32 l-30 11 42 27 c128 85 217 206 252 341 15 60 20 211 7 261 -2 8
-7 30 -11 47 -4 18 -23 66 -43 105 -72 149 -246 279 -417 314 -11 2 -32 6 -46
9 -14 3 -36 7 -50 10 -47 10 -295 26 -302 20z"/>
<path d="M24917 16454 c-1 -1 -42 -4 -92 -7 -235 -15 -403 -83 -535 -217 -67
-68 -123 -160 -155 -255 -42 -124 -76 -304 -58 -306 53 -6 145 -15 263 -25 41
-3 91 -7 110 -9 19 -2 69 -7 110 -10 41 -3 87 -8 102 -11 31 -5 35 0 43 47 3
19 8 42 11 51 3 9 7 26 9 37 2 12 16 48 31 82 89 198 369 204 470 9 40 -78 39
-173 -4 -265 -17 -36 -37 -72 -44 -81 -7 -8 -33 -38 -58 -67 -47 -55 -167
-162 -390 -348 -170 -142 -355 -327 -443 -444 -128 -170 -225 -396 -252 -585
-4 -24 -9 -48 -11 -51 -2 -4 -2 -13 1 -21 5 -11 159 -13 943 -13 l937 0 0 277
c0 179 -3 279 -10 281 -5 2 -223 3 -482 3 -260 -1 -473 1 -473 4 0 8 136 138
185 177 22 18 94 73 160 124 191 146 311 256 401 366 55 67 114 159 114 177 0
8 3 16 8 18 13 6 45 101 65 193 14 61 15 229 3 300 -42 236 -220 437 -454 514
-34 11 -80 23 -100 26 -21 3 -49 7 -62 10 -51 10 -335 26 -343 19z"/>
<path d="M27268 16455 c-2 -2 -34 -5 -73 -8 -76 -7 -85 -8 -175 -31 -235 -60
-447 -246 -548 -481 -46 -108 -84 -240 -96 -335 -3 -25 -8 -56 -11 -70 -25
-125 -24 -553 0 -710 7 -44 25 -142 29 -155 2 -5 6 -23 10 -40 9 -36 34 -113
47 -140 5 -11 13 -33 19 -49 22 -59 114 -200 172 -262 165 -176 370 -249 698
-247 163 0 213 7 337 43 225 67 398 242 481 486 37 109 47 174 46 319 0 123
-7 196 -24 240 -5 14 -8 25 -5 25 8 0 -33 106 -64 164 -91 171 -259 320 -408
361 -15 5 -32 9 -38 11 -62 19 -246 25 -315 11 -104 -22 -205 -76 -290 -154
-62 -57 -73 -64 -72 -43 0 6 12 133 17 182 24 232 90 375 198 434 89 48 204
26 263 -51 14 -19 36 -68 48 -107 18 -59 26 -73 42 -71 26 2 113 13 144 18 14
2 48 7 76 10 28 3 61 7 73 10 13 2 48 7 79 11 30 3 63 8 71 9 37 7 147 19 154
17 11 -3 9 8 -21 93 -98 276 -282 437 -562 490 -51 10 -295 26 -302 20z m156
-1310 c81 -39 143 -128 170 -244 16 -69 15 -234 -3 -306 -37 -151 -148 -245
-283 -239 -69 3 -127 31 -186 88 -42 39 -88 122 -99 176 -41 207 -6 381 95
472 53 48 76 60 142 73 61 13 107 7 164 -20z"/>
<path d="M29576 16300 c-191 -243 -569 -728 -591 -759 -11 -15 -112 -146 -225
-291 l-205 -263 -1 -271 c0 -149 1 -276 3 -281 2 -7 193 -10 568 -10 369 0
565 -3 566 -10 1 -5 3 -104 4 -220 1 -115 3 -215 4 -220 1 -12 533 -15 541 -4
3 5 5 107 5 228 0 143 3 222 10 224 5 2 70 3 143 2 l132 0 0 265 0 266 -140
-1 c-89 -1 -141 3 -143 10 -2 5 -3 342 -2 748 0 405 -2 738 -5 738 -3 1 -126
2 -274 3 l-269 1 -121 -155z m118 -953 c-1 -199 -2 -369 -3 -377 -1 -13 -40
-15 -286 -15 -157 0 -286 3 -288 7 -2 5 95 132 308 403 47 61 128 163 178 228
50 64 92 117 92 117 0 0 -1 -163 -1 -363z"/>
<path d="M34458 16455 c-2 -1 -41 -5 -88 -9 -47 -3 -96 -8 -110 -11 -14 -3
-41 -8 -60 -11 -94 -15 -265 -85 -365 -150 -72 -46 -171 -143 -233 -226 -88
-119 -170 -313 -197 -463 -2 -16 -7 -41 -10 -55 -26 -132 -27 -626 0 -670 2
-3 6 -23 10 -45 4 -22 8 -44 9 -50 2 -5 6 -23 10 -40 58 -229 234 -496 413
-624 81 -58 225 -121 317 -137 16 -3 32 -7 36 -9 8 -5 57 -12 150 -22 126 -13
442 -5 469 11 4 3 26 7 51 11 64 9 203 68 277 116 130 85 251 229 324 384 39
83 84 212 95 269 3 16 7 32 9 36 2 4 -96 40 -218 80 -122 40 -260 85 -306 101
-87 31 -100 29 -101 -12 0 -9 -9 -41 -19 -72 -11 -32 -18 -57 -16 -57 13 0
-74 -148 -112 -190 -75 -83 -163 -115 -311 -113 -195 4 -333 128 -378 341 -24
116 -28 162 -28 347 -1 181 5 246 28 343 28 116 102 228 189 285 78 51 137 68
237 68 175 0 327 -119 381 -299 l12 -42 41 6 c22 3 44 8 48 10 7 5 15 7 71 19
12 3 60 14 107 26 91 22 112 27 147 35 12 2 33 8 45 13 13 5 25 9 28 9 3 0 23
4 45 8 22 5 42 9 45 9 3 1 15 4 26 8 l22 8 -24 67 c-32 91 -115 256 -156 315
-160 223 -393 349 -692 373 -82 7 -214 12 -218 9z"/>
<path d="M45048 16455 c-2 -2 -37 -5 -78 -8 -463 -35 -759 -365 -684 -766 6
-36 16 -80 22 -97 29 -92 100 -186 192 -255 l70 -52 -62 -34 c-165 -92 -258
-225 -292 -419 -17 -94 -11 -267 10 -339 2 -5 5 -17 7 -25 15 -58 25 -84 58
-150 42 -83 100 -157 169 -214 44 -36 187 -112 229 -121 12 -3 31 -7 44 -11
23 -5 56 -12 97 -19 138 -25 462 -25 580 0 14 3 40 8 59 11 112 19 258 87 337
158 93 83 196 252 218 356 3 14 8 36 12 50 18 69 12 279 -10 345 -1 6 -6 24
-11 40 -20 76 -100 204 -164 260 -44 39 -121 95 -143 104 -14 5 -5 17 46 61
81 71 130 134 166 213 101 222 60 489 -102 665 -43 48 -135 122 -151 122 -6 0
-18 6 -26 13 -17 14 -114 55 -149 62 -12 3 -32 7 -44 11 -24 5 -56 12 -98 19
-54 10 -296 26 -302 20z m151 -435 c21 -5 57 -26 80 -47 106 -91 126 -270 43
-395 -46 -70 -106 -98 -204 -95 -94 3 -156 36 -201 109 -37 59 -38 62 -42 159
-4 67 -1 83 24 135 58 124 164 171 300 134z m-23 -954 c54 -9 130 -68 176
-136 34 -51 40 -67 55 -145 41 -209 -90 -424 -269 -439 -98 -8 -210 68 -262
178 -80 168 -38 395 91 493 37 29 127 63 152 58 9 -1 34 -6 57 -9z"/>
<path d="M47328 16455 c-2 -1 -41 -5 -88 -9 -47 -3 -94 -8 -106 -10 -92 -19
-172 -44 -244 -79 -70 -34 -101 -57 -175 -132 -63 -63 -101 -112 -129 -163
-43 -83 -98 -234 -88 -244 6 -5 79 -22 147 -33 21 -3 65 -12 100 -19 11 -2 76
-16 145 -30 193 -39 198 -40 203 -19 6 21 19 97 18 101 -3 7 62 121 81 142 60
66 199 87 285 42 158 -82 155 -341 -6 -447 -55 -37 -116 -52 -188 -49 l-63 3
-1 -42 c-1 -23 -2 -55 -4 -72 -1 -16 -5 -75 -9 -130 -3 -55 -9 -132 -11 -171
l-5 -71 77 19 c193 47 321 2 387 -138 32 -67 39 -105 39 -205 -1 -149 -70
-277 -180 -330 -105 -51 -259 -16 -325 75 -37 51 -54 90 -80 188 -12 44 -25
75 -32 73 -6 -2 -29 -7 -51 -10 -22 -3 -67 -10 -100 -15 -33 -5 -80 -11 -105
-14 -25 -3 -56 -8 -69 -11 -14 -2 -47 -7 -75 -11 -28 -3 -60 -7 -71 -9 -11 -1
-45 -6 -75 -10 -30 -3 -58 -10 -63 -14 -10 -10 42 -160 86 -247 110 -217 312
-372 543 -413 174 -32 446 -35 584 -6 14 3 34 7 46 9 104 21 229 81 320 154
123 99 237 294 269 462 15 77 14 274 -1 340 -43 186 -176 334 -347 387 -31 9
-57 20 -57 23 0 3 14 14 30 23 51 31 150 128 191 189 22 32 37 58 33 58 -3 0
-2 6 3 13 25 33 50 154 47 232 -3 99 -12 148 -43 224 -82 202 -260 329 -526
375 -63 11 -309 27 -317 21z"/>
<path d="M49534 16071 c-165 -211 -422 -542 -571 -735 l-273 -351 0 -280 0
-280 568 0 567 0 3 -230 2 -231 273 0 272 1 5 230 5 229 140 1 140 0 0 263 c0
169 -3 263 -10 265 -5 2 -70 3 -142 2 l-133 0 0 750 0 750 -274 0 -273 1 -299
-385z m290 -1110 c-3 -3 -133 -6 -290 -6 -232 0 -283 2 -279 13 4 11 232 305
270 349 5 6 75 95 155 198 l145 186 3 -367 c1 -202 0 -370 -4 -373z"/>
<path d="M57683 16395 c-112 -238 -313 -418 -598 -538 -60 -25 -118 -48 -127
-51 -17 -5 -18 -27 -18 -286 l0 -280 28 6 c44 11 217 81 294 120 79 40 210
124 278 178 25 20 47 36 50 36 3 0 5 -360 5 -801 0 -440 2 -804 5 -808 7 -9
624 -9 630 0 4 6 5 2462 1 2479 0 3 -118 5 -260 5 l-260 0 -28 -60z"/>
<path d="M60008 16455 c-2 -2 -34 -5 -73 -9 -78 -6 -83 -7 -175 -31 -217 -56
-420 -225 -528 -440 -30 -61 -87 -226 -97 -280 -2 -16 -7 -41 -10 -55 -4 -23
-10 -60 -21 -132 -26 -187 -22 -524 10 -733 44 -285 180 -544 355 -679 85 -66
210 -125 298 -141 16 -3 39 -7 53 -10 88 -19 319 -25 434 -12 291 34 517 203
627 468 50 122 68 233 64 394 -1 77 -5 151 -9 165 -3 14 -8 36 -11 49 -48 244
-251 479 -477 555 -68 23 -97 28 -200 31 -193 6 -323 -44 -467 -180 l-53 -50
7 80 c7 89 11 121 30 238 37 223 138 346 285 348 42 0 57 -3 90 -20 62 -33 93
-78 120 -176 14 -47 21 -60 36 -59 16 1 54 6 149 19 11 2 43 6 70 10 61 7 112
14 145 20 14 2 45 6 70 9 25 3 65 9 90 12 25 4 53 7 63 7 21 1 21 1 -2 74 -38
120 -117 250 -199 329 -54 52 -179 129 -237 146 -22 6 -42 12 -45 13 -48 15
-95 23 -170 30 -72 7 -218 13 -222 10z m166 -1314 c78 -38 138 -128 164 -246
9 -39 9 -241 0 -280 -26 -112 -64 -173 -142 -222 -46 -30 -73 -36 -148 -36
-127 1 -242 109 -284 267 -18 67 -15 246 4 310 22 71 79 155 129 190 49 34
140 56 194 46 20 -4 57 -17 83 -29z"/>
<path d="M63156 16425 c-27 -36 -136 -203 -136 -209 0 -2 -17 -33 -39 -67
-103 -171 -249 -523 -275 -664 -2 -11 -9 -38 -14 -60 -6 -22 -13 -53 -16 -70
-3 -16 -8 -41 -11 -55 -5 -25 -9 -55 -22 -165 -15 -128 -8 -557 11 -651 2 -12
7 -37 10 -55 3 -19 8 -45 11 -59 3 -14 10 -45 15 -70 16 -84 21 -101 61 -223
72 -217 192 -468 324 -677 12 -19 39 -62 60 -95 l38 -61 191 2 c105 1 194 2
198 3 4 0 -5 29 -21 64 -15 34 -42 100 -60 147 -18 47 -37 94 -41 105 -39 94
-137 426 -154 520 -3 17 -8 41 -11 55 -3 14 -8 39 -10 55 -3 17 -8 37 -10 45
-5 19 -15 82 -21 135 -2 22 -6 56 -9 75 -11 87 -18 228 -19 370 0 186 9 323
30 480 3 25 7 56 9 70 1 14 5 34 8 45 3 11 8 36 11 55 10 64 17 94 42 195 14
55 27 108 29 118 2 9 6 21 9 25 3 5 7 19 10 33 12 68 176 529 207 582 6 11 7
22 4 25 -4 4 -92 7 -196 7 l-190 0 -23 -30z"/>
<path d="M67134 16448 c-4 -6 57 -170 86 -233 5 -11 25 -69 45 -130 20 -60 39
-117 42 -125 3 -8 7 -19 8 -25 2 -5 17 -57 34 -114 17 -57 33 -114 36 -125 2
-12 6 -31 9 -43 25 -99 49 -224 61 -313 3 -25 8 -56 10 -70 28 -188 28 -728 0
-869 -2 -14 -7 -45 -10 -70 -3 -25 -7 -57 -10 -71 -3 -14 -7 -36 -10 -50 -27
-177 -122 -507 -214 -740 -23 -58 -46 -114 -52 -124 -6 -11 -15 -31 -19 -45
-4 -14 -11 -33 -14 -42 -6 -13 16 -15 189 -15 l197 1 18 25 c43 60 169 275
231 395 123 240 193 431 244 668 14 64 20 103 31 177 24 174 24 573 0 696 -3
12 -7 39 -10 60 -17 113 -66 314 -93 384 -4 8 -7 17 -7 20 -1 6 -23 62 -41
105 -6 17 -18 46 -25 65 -61 157 -321 608 -354 611 -44 5 -379 3 -382 -3z"/>
<path d="M1982 16405 c-12 -17 -9 -594 3 -598 5 -2 162 -3 348 -3 216 1 341
-3 345 -9 4 -5 7 -417 8 -915 1 -498 2 -907 3 -910 0 -3 157 -5 349 -5 l347 0
1 910 c1 501 2 915 3 920 1 6 126 10 353 10 l353 0 0 298 c0 164 -2 302 -5
306 -8 11 -2101 8 -2108 -4z"/>
<path d="M6650 15190 l0 -1225 315 0 315 -1 0 1226 0 1226 -315 -1 -315 0 0
-1225z"/>
<path d="M38330 15190 l0 -1225 315 0 315 0 0 1225 0 1226 -315 -1 -315 0 0
-1225z"/>
<path d="M41940 16125 l0 -290 546 0 c300 0 548 -3 550 -7 3 -4 -12 -31 -34
-60 -264 -359 -458 -747 -548 -1093 -1 -5 -11 -44 -22 -85 -11 -41 -25 -100
-31 -130 -6 -30 -14 -66 -16 -80 -20 -92 -25 -125 -41 -235 -3 -16 -7 -43 -9
-60 -3 -16 -7 -50 -11 -75 l-5 -45 315 0 316 -1 1 26 c1 14 2 36 4 50 1 14 6
59 10 100 9 84 9 83 20 160 7 56 11 75 20 120 2 14 7 41 10 60 3 19 17 80 31
135 14 55 27 107 29 115 9 39 87 269 100 297 8 17 15 34 15 38 0 15 122 271
155 325 12 19 39 64 60 100 57 98 193 275 280 365 42 44 80 87 84 95 6 12 8
436 2 460 0 3 -413 5 -916 5 l-915 0 0 -290z"/>
<path d="M52270 16125 l0 -290 550 0 c303 0 550 -4 550 -8 0 -5 -13 -26 -28
-46 -109 -140 -300 -454 -381 -626 -66 -139 -144 -350 -176 -475 -52 -205 -90
-386 -111 -529 -4 -25 -8 -54 -10 -65 -2 -10 -6 -41 -9 -70 l-6 -51 315 0 316
-1 1 26 c1 14 2 36 4 50 1 14 6 57 9 95 4 39 9 81 11 95 2 14 7 48 11 75 3 28
8 59 10 70 2 11 8 45 14 75 6 30 12 65 15 78 3 12 7 31 9 42 3 11 12 48 21 83
9 34 18 69 20 77 2 8 4 16 5 18 2 1 3 5 4 10 4 22 35 114 83 241 127 341 322
658 539 878 l67 68 2 233 c0 127 -2 233 -5 233 -3 1 -416 2 -917 3 l-913 2 0
-291z"/>
<path d="M54549 16410 c-1 -3 -2 -132 -3 -287 -1 -244 1 -282 14 -285 8 -2
257 -4 553 -3 295 0 537 -2 537 -4 0 -2 -11 -19 -25 -37 -14 -18 -25 -37 -25
-42 0 -6 -4 -12 -8 -14 -14 -5 -163 -229 -222 -333 -11 -19 -30 -52 -41 -72
-30 -52 -119 -229 -119 -236 0 -3 -13 -34 -29 -69 -26 -56 -98 -259 -106 -298
-2 -8 -4 -15 -5 -15 -1 0 -3 -7 -5 -15 -2 -8 -6 -25 -9 -37 -3 -13 -8 -31 -10
-41 -2 -9 -9 -37 -16 -62 -12 -44 -15 -58 -25 -110 -3 -14 -7 -36 -10 -50 -5
-22 -10 -47 -30 -155 -3 -16 -8 -46 -10 -65 -3 -19 -7 -46 -10 -60 -4 -20 -11
-75 -17 -129 0 -3 0 -11 1 -16 1 -7 103 -10 309 -9 169 1 310 2 313 3 3 0 6 7
6 14 2 51 21 236 28 277 3 14 7 48 11 75 3 28 8 59 10 70 2 11 7 34 10 50 24
132 77 329 127 470 134 377 315 684 552 934 l85 89 0 233 0 234 -915 0 c-503
0 -916 -2 -916 -5z"/>
<path d="M64086 16410 c-2 -5 0 -2416 3 -2435 1 -7 100 -10 284 -10 l282 0 5
910 c3 501 7 906 8 900 2 -5 6 -21 8 -34 2 -14 12 -52 20 -85 9 -34 18 -69 20
-79 2 -10 5 -26 8 -35 3 -9 7 -28 10 -42 2 -14 11 -54 20 -90 9 -36 18 -74 20
-85 3 -11 12 -51 21 -90 22 -90 25 -105 31 -135 3 -14 10 -43 16 -65 5 -22 11
-47 13 -55 2 -8 17 -76 35 -150 37 -155 39 -166 46 -200 5 -25 20 -88 30 -125
3 -11 7 -31 10 -45 3 -14 7 -33 10 -42 5 -18 12 -48 20 -88 3 -14 9 -38 14
-55 4 -16 23 -93 40 -170 l32 -141 257 2 c141 1 259 2 263 3 4 0 10 18 14 39
3 20 17 82 31 137 14 55 27 110 29 123 3 12 14 62 25 110 12 48 22 94 24 102
5 25 31 133 40 170 7 29 28 117 40 170 11 50 39 167 57 240 11 47 21 92 23
100 7 30 37 157 57 240 11 47 22 96 24 110 3 14 9 39 14 55 5 17 12 44 15 60
3 17 7 35 9 40 1 6 6 27 11 48 4 20 10 39 14 41 3 2 6 -396 6 -886 0 -489 2
-893 5 -897 3 -3 132 -7 288 -7 l282 1 0 1225 0 1225 -459 0 -460 1 -6 -33
c-3 -18 -6 -35 -6 -38 0 -2 -5 -19 -10 -37 -10 -33 -66 -272 -75 -318 -3 -14
-9 -38 -14 -55 -5 -16 -12 -41 -14 -55 -3 -14 -10 -43 -15 -65 -5 -22 -12 -51
-15 -65 -3 -14 -7 -35 -10 -47 -4 -13 -8 -32 -11 -44 -2 -11 -6 -28 -9 -37 -3
-9 -7 -28 -10 -42 -8 -41 -15 -70 -20 -88 -3 -9 -7 -28 -10 -42 -3 -14 -7 -34
-10 -45 -12 -49 -78 -332 -81 -345 -11 -51 -28 -110 -32 -107 -2 3 -6 17 -9
33 -3 16 -12 56 -20 89 -8 33 -17 71 -20 85 -5 23 -26 114 -76 320 -11 47 -21
92 -23 101 -2 8 -10 44 -18 80 -31 128 -79 331 -82 347 -2 10 -24 104 -49 209
-25 106 -46 194 -46 196 0 5 -922 2 -924 -3z"/>
<path d="M5005 15764 c-128 -24 -159 -33 -245 -72 -221 -100 -395 -313 -451
-552 -6 -25 -13 -54 -15 -65 -24 -98 -23 -362 1 -465 3 -14 8 -36 11 -50 7
-38 41 -126 74 -191 106 -215 305 -376 512 -415 152 -28 404 -38 540 -20 90
12 123 17 163 28 22 6 45 12 50 14 39 8 130 53 186 90 101 67 196 174 278 312
30 51 30 52 8 53 -38 3 -80 6 -147 13 -36 4 -90 9 -120 12 -30 3 -71 7 -90 9
-19 2 -66 7 -105 11 -147 14 -135 16 -183 -37 -85 -95 -233 -133 -349 -91 -57
21 -137 97 -163 154 -23 53 -49 164 -41 175 3 5 287 8 630 8 l623 0 -6 145
c-3 80 -8 156 -10 170 -3 14 -8 42 -10 62 -15 115 -71 264 -138 363 -131 195
-304 296 -580 341 -75 12 -355 10 -423 -2z m295 -397 c0 2 22 -8 48 -21 101
-51 159 -153 176 -311 3 -20 -3 -20 -298 -19 -166 1 -304 2 -308 3 -11 2 24
134 50 189 55 113 179 181 295 161 20 -3 37 -5 37 -2z"/>
<path d="M36685 15764 c-136 -25 -163 -34 -260 -80 -257 -124 -425 -372 -462
-684 -9 -70 -9 -240 0 -305 30 -235 132 -439 291 -580 85 -77 216 -142 318
-160 17 -3 34 -8 38 -10 27 -17 355 -25 485 -12 333 33 523 155 694 445 30 51
30 52 8 53 -38 3 -80 6 -147 13 -36 4 -90 9 -120 12 -30 3 -71 7 -90 9 -19 2
-66 7 -105 11 -147 14 -135 16 -183 -37 -61 -68 -137 -103 -230 -106 -91 -2
-149 18 -206 72 -64 61 -100 129 -112 215 -3 19 -7 40 -9 47 -2 6 2 13 8 15 7
2 290 4 631 3 l618 0 -6 145 c-3 80 -8 156 -10 170 -3 14 -8 41 -10 60 -28
192 -115 369 -243 491 -123 118 -261 180 -475 215 -75 12 -355 10 -423 -2z
m280 -398 c70 -10 141 -62 188 -137 18 -30 45 -128 49 -179 l3 -35 -299 0
c-241 0 -299 2 -304 13 -6 17 16 116 36 162 24 52 77 115 119 141 40 25 127
49 158 43 11 -2 34 -5 50 -8z"/>
<path d="M9070 14307 l0 -343 329 1 c181 0 333 4 338 8 4 5 8 159 8 343 l0
334 -337 0 -338 0 0 -343z"/>
<path d="M39537 14643 c-2 -5 -3 -159 -3 -343 l1 -335 338 0 337 -1 0 343 0
343 -334 0 c-184 0 -337 -3 -339 -7z"/>
</g>
</svg>
